<mxfile host="Electron" modified="2024-07-09T22:18:51.721Z" agent="Mozilla/5.0 (X11; Linux x86_64) AppleWebKit/537.36 (KHTML, like Gecko) draw.io/24.5.3 Chrome/124.0.6367.207 Electron/30.0.6 Safari/537.36" etag="cvvi8ui4SaI7nRbxGjP5" version="24.5.3" type="device">
  <diagram name="Page-1" id="bXB1TlRVmh4tXXcqfVWb">
    <mxGraphModel dx="1348" dy="830" grid="1" gridSize="10" guides="1" tooltips="1" connect="1" arrows="1" fold="1" page="1" pageScale="1" pageWidth="1169" pageHeight="827" math="0" shadow="0">
      <root>
        <mxCell id="0" />
        <mxCell id="1" parent="0" />
        <mxCell id="Heeshr9j2n27mW7Kai5F-4" value="" style="rounded=0;whiteSpace=wrap;html=1;strokeWidth=12;fillColor=#000000;strokeColor=#00A30B;" parent="1" vertex="1">
          <mxGeometry x="340" y="300" width="800" height="400" as="geometry" />
        </mxCell>
        <mxCell id="Heeshr9j2n27mW7Kai5F-6" value="" style="shape=image;verticalLabelPosition=bottom;labelBackgroundColor=default;verticalAlign=top;aspect=fixed;imageAspect=0;image=data:image/png,iVBORw0KGgoAAAANSUhEUgAAAxMAAAH2CAYAAAALTNFIAAAABHNCSVQICAgIfAhkiAAAIABJREFUeF7svXmTJdd5n3lq7brVje6qxtbdAAE0TIIEKS7iIlK7JZKipLAlW7QibMfEzESMJyb8n7/BfBTFKByhsCRbkiXLWimLIihKokSKK0iRAAgS3U0C6A3dVdW1zvmdm2/We0/lXStvoW/mk43CzfXkzSczz7m/8y5nLoRwEP9ma5qbC0F/8/MhLC6GsLwcwspKCKurIZw+HcKZMyF0OiH81E+FsLYWwu//fgibmyHcvRvCnTshbGyEsLUVwvZ2CLu7IeztRQoRg/6YIAABCEAAAnUTyNutpaXedkttl9owtVsXL4bwW7912G6p7dIf7Vbdd4XyZp1A+jk4F+bm58LC4kJYWFoISytLYXl1OZw6cyqcOn0qLHWWwjM/9UxYXVsN//j7/xh2NnfCvbv3un8b99Ly3vZe2NvdCwf7B/GnoH4PzjqYk/3+8df4jE+66fv7vX8SB1p35UoIly8fCo+FhRD0JxFiFbsuX/NMEIAABCAAgZMgYJ1Xedul5Rde6IoJ6zCz9op26yTuDOeYYQISAT1/EgaFOLh78244e/Fs/L0XL1A/AaP4SCKk+NN6zTNNRmA2xYRVxP6zqlK+di2ECxe6vT2qiPXXT1BMxo+jIAABCEAAAsMJVLVbeWeYlm/e7LZbsq57QeHFBD96hvNmj3YQkAUh+0uCwgkJbd+8vhlW11d7BMQRQSFi6ImJnpvZFBP+Un0FLYuEWSW0Xq5NqpiffrpXRJiwMOuE/5wIIwdBAAIQgAAERiRg7VZVJ5i1W3Ld9Z1gNj/iKdgNAm0jECVE919hjdiP75f+JCxuXr2Z3Jz0Z25R9pkEhLlLxRn9YxqPwGyLCVXImvLeHS8qXnqp28uT9/B4QTEeM/aGAAQgAAEITEbAt1t52yVxoXVXr3Y7wayd8laJ3EKBlWKy+8BRjSFgIkIWiNLNySwTzkKxcTPGyxbCIX0mj/duvAUC4niPw2yLCV173sPjhYQq5hdf7BUTFjNRZZ04HkuOhgAEIAABCAwnYO1W3n6ZpUKdYArCruoEM0v68LOwBwTaQ6AQEiH+7EuiwomJ/YNonYjv2q0rt1LcRCkgFDdRxE70iAwTHO2hd+wrnX0xIQRVFbIPwrZKOa+YqZSP/QBRAAQgAAEITECgn1VC62/c6G9Rxy13Atgc0iYCPTETe9FuEf8kMl576bXw8OWHy7iJ+bn53hgKrHwTPyazKybynh1fMZuQUC+PMjppWl+v9j81gWEIeZgmfpg4EAIQgAAEBhCoardyUaHl69e7bZYJB+/uZG5OOg3t1QDYbGojgVJIxPdI8ylmopjf3txOaWNTfIRZJeKnxUu0kVdd1zy7YsITsMpYn+bm5AOx5X8q60RVhWyVMVaKup4pyoEABCAAgVEJWJyEuTjpU22WArB9JxixEqMSZb+2EYg//Y5kdMpjJuLy7Su3w7mL5w7Fg4uZUPxEKSqIvx77CZp9MeF7enxl7GMnFDdx+XK3F8enhvVxE2Oj4wAIQAACEIDAhAT6tV0mLpSJsMpF17s5+fkJvwaHQaBJBFIwdmGJ8HETWnf3xt3QWetEzdAdXyK5OeXjTUQY3XxOKIpxnovZFxN2tWadUEWcWyfkf5pXyv0Cscehx74QgAAEIACBcQmYkPAdYDZv2+SiWzXWhLdQjHte9odAQwn4jE7pEouAbB8/oZGud7d2w+n100fSw/YMYNdQRtO8rNkWE75nZ1DlrBFFNXidxUd4dyfv5jRN0pQNAQhAAAIQyAlUdYRJWNigq3m7hUtuTpBlCHQJyN0pTj2WCbNSFJ+3rsaMTo/FkbCdixMZnY7/AM22mPDXn4sJH4StQYC2tkK4dOlwFGwJCm+dyE3Hx2dLCRCAAAQgAIH+BPJ2y1snZJnILepeWODi1J8rW1pLQEKiyiph63e2dsLyynLXMrHgUsMW4qK14I554c0QE3p4NA2qmBXQZmKin5A4JkwOhwAEIAABCAwkYO1U/pm7PI2SHnbgidgIgXYSKAWFC8JOAiP+u3XtVgrCLmMlsrEm5O7END6BZogJXXeVkPDWCQ0C9NRT1a5O+KCO/+RwBAQgAAEIHI9AlaCwdRITsqgro5NZIcjodDzeHN1cAj6jU7xKExSllSIKC81bRicbuG5+YT4m+iwCsX2aWDTFWM9Kc8SELrtKUFhmDMVN+PSwVS5OKgNVOtYDxM4QgAAEIHAMAoPaLbOoe/emKkFhYuMYX4NDIdAYAoWwkKBI40zIQhHn9be9tR1W11d7xpkorRRFlidxIKPTeE/D7IuJvGfHV8w+q5Mq5bW1wYPXISTGe3rYGwIQgAAEJiPg2y7v4uTHSJJlQuNN5ElDTFBMdmaOgkCjCfgA7GSZcO5OCsBeXFk8FBTxd185gJ3mi79GA5rCxc2+mPBQciGR+6BqvAkfN5FX0Na7Qy/PFB41ioQABCAAgSMEqkSFrVNGJwvC7tdeHSmQFRBoJ4EyPWy8/CQo9M9ZJczlKaWHXXPpYaN7k7k6aeC69Mc0FoHmiAkvJExE+B4ebVfFfDkOXqdK2Qavy92dxsLHzhCAAAQgAIFjElD7ZC65Nq9lZXRSm2UdXF5Q5O5Ox/wKHA6BRhCQJSL9HoxXU8yXlolivawTnfOdJBrytLByb0qTiQqExUiPRXPEhF1uLirM1UnrzdVJFXO/Xh5cnUZ6cNgJAhCAAAQmJGDtVP7prenapiBsuefmbZYXEhN+BQ6DQNMJeKuEFxSvvfhaOHchZnQytyYyOh37UWiOmPCVcu7eZMvXrx/28ngxYdYJExIIimM/WBQAAQhAAAIjEBgkKMjoNAJAdoHAUQI+bsILCa3XWBOrazEIO1n8pNWLWAmJiuL3X2mhOFo0ayoINENMqDK2KRcVPj2sLBM+1Z4XEemhKv4qQLEKAhCAAAQgMBUC1m5Zx5dvx/IxkqwjzLdZtF9TuS0UOmMECtcmc3E64ua0F3eI3oNKD6uMTqWbk4kIuTTpVzEuTmPf+GaIifyyVRGrUjYh4WMn8orZYidy/1OERU6VZQhAAAIQqJNA3vmVuzlpu+8A6xczUed3oiwINICABWObq5NSxO4fxDSx8Z26e+Nu6Kx1omZwFolCUNg6IUjzSVkwDSPQLDHhK+a8p8cqaQ1ed/lytQ+qCYph1NgOAQhAAAIQqItAP1Gh9UoccuHC0TaLDq+66FNOgwiUGZ2clcKnhtX89uZ2UEanNN6Ed3FysROMhD3eQ9EsMWHXbpYJs074IGz5oPrB6/qZjMfjyN4QgAAEIACByQlYu+XbL7VhyuhUNQp2Vds1+dk5EgLNIVB4vpdxE/GdSvMuTawyOp29dLbX1cm7O2GQGOt5WBxr7/t5Z1XAmvr18JhlQhWz7+WxuImqIGwr836+br4bBCAAAQjMHoGqNisXElomo9Ps3Vu+8ZtOwNLD5iLC1isIe3ll+UgQdo9Xk8VO6GqKn5hv+oXdp1+guZYJExXeB1XzZMe4Tx9FvhYEIACBlhLwnWAmKGzdzZtdF6fz57spzeXeVBXj11J0XDYE+hGQy9ORIOzCOnHr2q1w7mJMD+sGrCtHwnZZnfqVzfpeAs0TE763JxcSVjn7IOwqy0SeJYOnBgIQgAAEIDBNAlUdYLbO3HNNSFS5OJHRaZp3h7JnkYC0RHqH4pcv5m1ZcRMSE7JEpLgJC8DWfGGeIPh69JvePDGha/e9PHnchJbzIGw/CjZB2KM/PewJAQhAAALHI5C3V7mo0LLEREcj9hZWCZ/VyUTE8b4FR0OgGQQK4dA3PWxhmVB62KWVpV4hUQRgp/SwPkVsM8hM9SqaKSaETBWwhIN9mpXCKuaqIGxMx1N92CgcAhCAAAQGEPDtlRcZyug0qM0aUCSbINBWAnl6WAvAltDYuLnRdXMyq0SWySlZJdJ/h5aKtnIc5bqbJSZ85Zv37niXp35B2N50PAo99oEABCAAAQjUQSBvv3wH2K1b3cQh3iJhnV95J1gd34UyIDDDBAalh9WgdRIVO5s7SVAcGbyuwt1phlGc2Fdvlpjw2HzFnMdO+CBsq5yrRsO28mRGZoIABCAAAQjUSSAXEHknmC1fv36YHlZtlnfNxc2pzjtCWU0hIHenOPn0sGXcRJzRv9tXb4dzl7pB2D3B11FQpLCJ/K8pbKZwHc0UE6qAu09R19XJiwmrnC0Ie5APKpX0FB45ioQABCAAgb4EzD1XbZXNq71aWekKCm+RwCrRFyMbINCTHja+T2Wa2GiZkLBQetjVtWLgOmV1mps/HMRO7k90JI/8EDVTTOjyc8uEDVynT1XQFoSdm41tmYdo5IeIHSEAAQhA4JgE8jbLhIQ+NW1thXDp0mEQtnV2+c9jfgUOh0AjCah/uXBvkouTWSiUHvb0+unDIGwfgI1DyliPQnPFhDD4np3cOiFXp8uXDyvmqoxOWCbGepjYGQIQgAAEJiDgrenWblmbZcsKwpZ1oqoDzDq/EBYTwOeQJhPwbk6a3z/YT3+av3vjbjh7IY6CHX8Jl+lhXcxECsCmY3mkx6N5YsL37ti8FxI2/8ILIaytHYoJX0FTIY/08LATBCAAAQjURCBvu9RWmSVd2158sRuErdPRXtUEnWIaSUCWiOzPuziZdWLzxmYKwK4SEmldKdIbSanWi2qemPB4fOWcC4rNza7ZeH39sGIeFNSGOq31waMwCEAAAhDICOQdYFo2dye5Oam9ss4uHztBBxiPEgQqCRxJDxvfKbNW3Lx6M8VMWNyEjS+hYGwffE162Eq0PSubKyZUCWuyyjh3c9J6BbU9/fRRs7FVzDrezw/nyR4QgAAEIACB0Qn4Ti8vHvK2SynNzZqeC4q8zRr97OwJgUYSGCU9rC5c6WGTO1MRgD0fRXqZ2YkxJkZ+NporJoTAV9JmMrZAbC0rCFsDAakiHuSHOjJOdoQABCAAAQgck0BuSbfOrwsXekfCtrYLy8QxgXN4IwmUfcqH1ogyEDu+U3J3un2tmx7WBIW5NyUXJ0sN20g49V5Us8WEWPmenryCVk8PQdj1PlGUBgEIQAACkxHIO8Byi/rNm0eDsE1QTHZGjoJAown0pIeN4qGMnUjvWkwPGwevO3chjjWhf/FdSlYJfbo/7/LUaFjHuLhmiglfIdu8Vco+oE1uTgRhH+Px4VAIQAACEKiFgNoqTXmb5dszPz6St6h7ywRWilpuB4U0jEARkC1rRPkX362b17pxE8kS4bM6FWKiYRSmdjnNFBMeV14x+54egrCn9mBRMAQgAAEIjEkg7wgz91x9apssE089ddQ1FwExJmh2bxOBqvSwSVDEd+r2ldspADu5OXX/d+jeVLg5lVmd2gRtzGtttpjo19Nj1glV0BaE7Xt5LEuG1mmyinpMuOwOAQhAAAIQGItA3gGmZesEU3vV6fSKCWu7rL0a62TsDIGGEigsET5FbJ4eVoJie3M7pYfV1OPm5MebSBsbyqmmy2q2mBCkvGLOfVAtCLsqANtERU2wKQYCEIAABCBwhIC3SGijX7Y2S+uuXz9MGuKtEV5Q0Pl1BC8r2k3gSHrYwiohoXHr6q0yNWwZJ1EICS8gSA87+BlqvpjwFbMXEjZPEPbgJ4StEIAABCBwcgT6CQmtl5uTTw9rnWDein5y35QzQeC+JjAoPayPm9i4sdF1dVLMhBMSPUHY9/WVvvlfrrliwlfIeeU8bhD2m3+f+AYQgAAEINAGAoOs6TduHB1stWo07DZw4hohMAqBMq9BbyYni5mQ65OsE2cvnU0xE+bqlMabSFa+eBJcnIaSbq6Y8Jc+qHIeFITtzchDUbIDBCAAAQhAoAYCarM06dO7OWlZgsLGRzL3Jh/nR+xEDTeAIppEoCc9bHyHvJBI6WG3dsLSylISDWaNMBGRgrI1mahAWFQ+Gs0XE75S9hWzZcfQun4jYecVNL6olQ8RKyEAAQhAoAYC1vFlbZUte0EhMVEVhO3bJzrCargZFNEkAlWCYj++V8kyce1WWLu4llycUnpYuTpl7k5NYjGNa2m+mBC1vIJWxcxI2NN4nigTAhCAAATqIOA7v3wbdu1aCBoJ2wsGHzuBZaIO+pTRBAIy8NmfZtN7FP8rxppI83Hd3Rt3w7mL5w4tE5bJyQRFPLa0UDSByxSuoR1iQuB8T48PxNZ6bzbOszrRwzOFx44iIQABCECgLwEvHnJRoSBsuTmprVpY6P5VWdH7Fs4GCLSQQCEqUnpY+4uiQoJi8/pmcnMqYybi774yXkK/knFxGvrANFtM5BWyr5S9oFBGJ+vpsQraiwrr6aHHZ+gDxQ4QgAAEIDABgar2KhcSWlZ62PX14ZYJ2qsJbgKHNJVAv/SwyTJx8244e/Fs1zJhLk5mnZDEKN6lJDYshqKpoCa8rmaLCQ/FKmovIixuol+GDG+VoGKe8BHjMAhAAAIQmIiAtVG+3ZKbk9LDKm4CS/pEWDmoPQSq0sMGDShfuDrpc2dzJ2ze2Ayn10+XAdhl3ISJCn4DDnxo2iEmJCQ0DRIUCsK+dOmwch5kPuahGvhQsRECEIAABI5BwFspvKCw9XJ18kHY1vElccEEAQj0Eih/AjoXp/guSUhY3ISlh02Gh/ga5UHYGCQGP1TtqXl85az5PG5CvT2XL3dNx3lvj/mjDmbJVghAAAIQgMDxCPTr/PJtmDq/LD1s7pKbW9Tp/Dre/eDoRhDoyeZUjIBtsROWHnZ5ZfnQMhHfmzJuwggQO9H3WWiPmBCCXER4QaHKWabjXEjkFXNflGyAAAQgAAEI1EBgWOeXLBPW+aU2ytot317V8DUoAgJNIiCXJ7NE+BGwLT2sMjrJIpEGrHPpYcuxJ5oEo+Zrab6YyCtlLyj8SNiKm5Cbk1XMcnNSBW2f1rtDL0/NjyDFQQACEIDAEQJ522XuTlovS/rKSm/nl7VdtFFHULICAomAtER6rw7nzdVJcROra6u9MRPxXSrHm4iHEHzd/zlqvpjw1+4r5zwQW5YJTcqSYb08XkhYj09/lmyBAAQgAAEITE7At1EqxXd+WZuldcro5EfB9kLC3HJpsya/DxzZHAKFcDABUWmZiCsVM7F6frWbBlYxExIS6R2KKPRLGRengc9Eu8SEobAK2n9qPg/CHuaLOhAtGyEAAQhAAAITEvDCwubNOiE3J7nlmogwAaFPTVgnJoTOYa0goGxO6Z2KVxvn9bmztRM6a51eywTpYUd+HNojJnxl7LNjeNPx1lbvYEBeTFhlPTJadoQABCAAAQhMSCBvs7w13dKZ9xMUWCUmhM5hTSWQUsTGd8oPWJfiJrQufm7c2Ai7W7thdT26OvmxJrLYiabyOe51tUdMeFKqpHM3J62zIGyriE1M2DIV9HGfN46HAAQgAIFxCVibZQJDn5q8W25VezXuedgfAg0kYIHXurQeQeHFRRQbsk7kY02kYGxzd5KrE1MlgfaJCauMq8TEiy8eWiZUMVvMhFklzHSMCbnyYWIlBCAAAQjUQMC3U15I+LgJdX75kbB9O+XbKjrBarghFNEEAqVrky5GXk4SE4V1QsuyTnTW42CQCpUoXJwsVqIMviZ2ovJRaIeY8L05fj4XFPJDvXChemTRXFBU4mQlBCAAAQhAoEYC/dxyX3qpd6wJiQazTuj0dHrVeBMoqkkEvHtTz8B1126FlB42vjvpz7k4JYHBO9X3MWiHmPCXP8gysbkZggkKq5QxHfd9eNgAAQhAAAJTJKD2SpO3SNi82iulh9VkQsKsEGq3mCAAgSMEknUiTj3jTBTWCaWHXVpZKt2aekQFQuIIS7+iXTWOVcy5oNB4EzbmhDcdVwkK0bMKm4dr4MPFRghAAAIQGJOAt57r0CprutYNSg/r2yjaqTFvALs3joD0g/2lV0o+Tt113s3p9tXbaayJ0s0pc3XCOtH/yWiXmBAHXzFr3vf4aDk3HXtBYRV0f55sgQAEIAABCNRDoJ+Q0Pqq9LC4OdXDnVKaS8BERHyH9g/2D+MmonVie3O7m80p/tYrx5mIv5JLC4UJcwKxjzwf7RMTQuBFRB43oZR7ipsw4eBjJbBIHHmAWAEBCEAAAlMiYGIib6e0bOlhLQjbt1V+fkpfjWIhMIsEfIpYjTHh3Z00cJ3GmpCrkw1WV4oKExCKnSj+zeL1T+s7t0dM5BaJvJKWm5PWXbnSO7LoIFenad0VyoUABCAAAQiIgNol+8wt6RIUfiRsa6/o+OLZgUAPgSQiUgqnYrVm47vVE4wdlzdvbJZxE15IlNaJpDKYcgLtERP+ynMh4Xt9fG+PVcyWIpYKOn9+WIYABCAAgWkQ8B1gaqOqOsQ00GpHqSxdJqe8ncqXp/FdKRMCs0Cg1OVRRGRCwlLFyjpx9tLZ7tXICpFldEJLVN/odooJsfCCwoKvrcJWEPalS4dp9qriJqigq58o1kIAAhCAQL0E1F5Z++StExobybvlmqjQpyb7rPfbUBoEZpaABV+Xg9cpk1PxJ0Ghgesso1NPrIQ3SGje/maWRL1fvH1iol9vj6+g1dtjpuPcbGy+qPXeB0qDAAQgAAEIHCWQt1m+rVJ62LW1o5YJa7eOlsYaCLSeQCkonJAwS8WtYqyJMnOTEw5pnAkvKlpP8hBA+8SEv/nW2+PdnDQvy0ReQXtRwQMEAQhAAAIQmBaBKpemqnVqq86f74oJs5Zbh5e3nmOhmNadotxZISAXJ/vTrN6n4tO7PCmj0/LKclc0KJNTPnAdaqLyjrdXTHg3Jy8mtP6FF6qD2qyS9pV1JVZWQgACEIAABGokkHd6aXlQ9kGdGhFR4w2gqMYQKERFGXwdf/eZuLh1JcZMXDzbkw42uTu5MSeShYKph0C7xERVz06VdcIqaAW2+XiJvMeHhwkCEIAABCAwTQK+3fIuTlovl1yNN6H0sHlbRafXNO8KZc8wAcvsZNmdyvSw0e1Jo2DLMlHGSxQiwlycSiGBnuh5AtolJvyl55YJH4QtP1RV0LmYkBpVBc0EAQhAAAIQmDYBtVOaBgkK0sNO+y5QfkMImIgo3Z2KcSbK5fi6bdzcSFerkbDNGqHPMoZCG9Ni919D0Bz7Mtr5yzivoNXbYxYK22YZnUxAWK9P7odqy8e+FRQAAQhAAAIQyAh4IZF3gmlZnV8+Paxvo6yoqnWAhkAbCZT6vEgPG98hWSbK0bCL34BLnaWudcJZJhhrov8D004xIR55BZ37oyrl3uXLh6ZjjTVh402Y+bg/V7ZAAAIQgAAE6iPgO7x8+/XSS73pYas6vur7FpQEgZknYNmc0oVEcVFmdypGtNNYE6vnV7tB2LJCMNbE0HveXjGRHqL4FOUiwipp+aLmGZ3MSkEvz9AHix0gAAEIQKAmAl485AlDZJlYWekGW/u2iU6vmuBTTFMJlGNNFNYJC8juGWsii5koWShmwv6aCmiM62qfmMgtEracV9Byc1JQW+7m5Ht9BFrbmSAAAQhAAAJ1EvBtlZVb1X5VueSaqPBB2LRVdd4dyppxAqU1QkKi+LPYCY01sXZxrTcIO3N3mvHLr/3rt09MVCG0mAlfUV+71jUdK4e3CQhzc8IyUUWRdRCAAAQgMA0Cvm3Krel+4Drf+WXiARExjTtCmbNIQPES9qfZ9F5113lBobEmFIBtQdcWKxHiL2bSwlbf+HaLiX4VtK2/desw5Z6Pl8h7e0xcVDNmLQQgAAEIQGByAtYm5RZ0rVfmQbnlkh52cr4c2VoCpauTRsMuLBS3r94Oq+sxm1P8befjJSw9bE9mp9aS673w9ooJVcKaqipps1Tko4tWiQgeJAhAAAIQgMC0CVS1WdZ++Ri/3DpBZ9e07wzlzyIBZ6VQrESyUMTEnvrUWBPK5qSpFBCFVaK0UqSNs3jh0/nO7RUT4mkVsRcUfrwJnyXDLBPeQjGde0KpEIAABCAAgS6BvJ3Scu6aq7EmVuWWEX/d5J1extFEBW5PPFktJ5DGm4jv0ZEA7GKdxprorHXC6fXTXVenqiBsxproeYraLSaEwgsJq6DtU+bjCxcOK2eLnbDK2lfaLX85uXwIQAACEJgyAS8izOVJbZis6E891RUTWCamfBMofpYJSEj4qSoQW+s2b8QsaRIMcnXSnwau89YJzBI9HNspJvKenryCtu3Xrx/N6ETvzizXI3x3CEAAArNJQO2SJi8irK2Sm5MNXOfbKOvwms0r5ltDYDoEkldT1zIhbWEpYUt3p7hOY02cvXj2UEzE92p+bv7Q7QkXp557004xUfV4WgWd9/ZorImqwDZERRVF1kEAAhCAQF0EfMeXyvTL1gmm9bJM5OMi5e5OarOYIACBLgFpcwmJ+E4l60QRL2HLGmtieWW5x83JxpWIdopuGfqwv5ZzRUzklbMXFdomV6eqSrqqoqaybvnrxOVDAAIQmBIB31bZvLVXSg9r4yL5jq6804s2ako3h2JnkkAhKEpRUWR00rVorIlzF8+Vloh8FGxSxPbe8XaLCVXImvKKObdOaKwJVcJ5zIRV1DP5FvGlIQABCEBgpghUtVVaZ5YJ3/FlbVYuKGbqgvmyEKiZgBcQWSD2/sF+6fKUMjqtxIxOPm4ivVPdOIqav9XMF9duMaHbl/f2SEhYRidts4xOXkj4+Zl/BLgACEAAAhC47wlUdX5Z+6UvLyu6FxAkCLnvbylf8P4gcCSzU3yvNm5shHOXupYJxpoYfp8QE2KU9/Z4gWEZnXLLhFXUVNjDnzL2gAAEIACByQn0ExK5Ff3SpV5B4a0SmmeCAAQOCXgrhcaaKOIm5Pak9LDeMpFiI3w2J3ufeK0Sz/aKiSqLRC4qVFH7jE6YjamGIAABCEDgzSCQt1l+WW2V4iZWVrrfrF9b5cXFm3ENnBMC9wmBvmNNKG4i/skykcaaWGOsiVFuWXvFRBUdH3xt8/JFPXWKjE5VvFgHAQhAAAInS8B3etm8vsG1a91xkbxgMJdcbccycbL3ibPdtwQGjjVRBGGXY00Yu0rnAAAgAElEQVSkV6cYayK9W26ZsSbKe4yYEIq8h8ebjrXt3r0QLl48NB/3C8S2Svy+fYX4YhCAAAQgMLMEcuuEb6s01kSeedDaJLVZTBCAwCGB+NOucqyJ9I7F3eJfGmvi0tlDAaGRsIvRsEkJ2/swUcPowdHke3u8hULrZZ3QgEBVQdgICKonCEAAAhCYFgEvIOwcvr2y+StXQrDMg15EeEsF7dW07hLlziKBQjQMG2tC40ocsU4w1kTPHUdMCEdVb09VRidVxLlVgh6fWaxC+M4QgAAEZo9A3umlZXV+6dNbJqyt8uJB80wQgEAvgUJQ9Iw1oWBsWSbysSbiO2SiwtydwNklgJiwJ6FfJa2K+saNri+q9vWVNBmdeI8gAAEIQOCkCPiOL+/iZO2UBIUGr8OKflJ3hPPMIgEvILKxJtJo2PovfvaMNWEuTvETIXH0prdbTFRZJLyosHmJCT+6qFXUmIyPPlGsgQAEIACB6RFQu6Qpb79svcVNeEu6tVVYJ6Z3Xyh5tgkUAqJ0eYrLyui0ur7aY40ohYQMffY321dey7dvt5ioQujjJWyejE5VpFgHAQhAAAInRaBKPGiduTnpe6itWl3ttaDT6XVSd4jzzCKBwkqRRESRFjZ9xn+yTKyu6X2KFyaDRBF8rU8TFYqnSNtbPiEm7AHwFXUuKLRNg9fZgEC+x8dcnXzPD70/LX+tuHwIQAACUyRgAsK7OqmdkpuTZR60dipvm7BSTPHGUPSsEfDjTZRxE2mmGzPRWe/0BF8rZqLHzakQEklUtHhCTOjmm3nYBIUXE9bzoxzeGhAoD8CmYm7x68OlQwACEDhhAtZeeSHhrehqp3y75Du8TvircjoI3K8EuraHrmhI31Gzsk6k33zdea3bvLmZrBNlNiezTsR3LK0r/t2v13lS3wsxYaRNSHhB4TM6yXzsx5qwXh+rqE/qjnEeCEAAAhBoFwHfPunK/XLu5nThwqGbU1WSELVdTBCAQBIQmkxEeCGR1pmrU4ybSIYH/WKWYaJwc0rreJ0SQ8REwlBMXkh4M7LWy83p0UcPe3zyIGzrCfLlMQ8BCEAAAhCok0De8aVla682N7tjIvWzTJiQQFDUeUcoa4YJJAEhUVH8+QBszSsIe7Gz2BMvUaaHneHrrvurIybyitkqZaugbfn69cOMToOEBJV03c8o5UEAAhCAQE7Ad35Ze9Uvjbnv7KKNykmyDIFkhSgtFEUgtgTGztZOOL1+OhHyY0wciZtouZUCMVH1ElXFTMjNSSn3LEWsj53AJ7WKIusgAAEIQKBuAr4DLLegKwBbVnRSmddNnfIaTMCsE97dyeY1cJ3FTJiAYOC6ow8DYsIzyStpLyq0nyppTd4PlZiJo08VayAAAQhAoH4CaqM05W2VX5Z1wmd08i5PuOPWf08ocTYJONem7it16O7kXZ16Bq6L70+PkCBgorz3iAlDkVfSVdYJZXSy9LDeGlFVWWNKns0Khm8NAQhA4H4m4IWDzVt7pWVZJzqdwyBs3z7dz9fFd4PAm0wgj5eQ65NiJs5dOtcVETYKdiEqLAA7pYtt+YSY8A9AXkmrgvYZndTj89RT3SP08FTFTrT8geLyIQABCEDgBAjk7ZUtyyXXMjpZO9Wvw4sfQSdwozjFfU/AB2BbvET8+acUsRITSytL3SxO6T2K6+Mv5zJVrL1DLdcTiIn8Ka/q6bFeH1XSlsPbCwlcnXKKLEMAAhCAwLQImCXdWySs7fKWCRMRxPVN605Q7owTsPEmjlgl0vsUxcTNjW7MRFQRSUC4cSZKL6ekMbr/ZhzHxF8fMSF0vocnX/aVtTI69fNFzd2eJr4lHAgBCEAAAhDICFS1U9olX2/JQvpZz01gABgCLScgIZGm4kOfPUHYRYanJCiKsSZMUPRYJ4idYJyJI++Sr5jzXh8FYCujk+/t8VYJTMZHcLICAhCAAARqJuAt6JpXW2Xr+o01kVsnaK9qvikUN5METE/E96e0TsjFqRAWuqYUN3GxiJuQdSL+zc/Np0+Lm5jJa6/xS2OZyGH6StoHYWteMRMyISvtnrk5+U96fHKaLEMAAhCAwLQIVLVX6vQaFDMxre9CuRCYUQKWGjZZKDLrhJY11sRSp4ibKNycTETIuYmJEbCrnwFV0Jqsx8dbKPK0ez52AjFRzZO1EIAABCBQHwETEblVQmeQZSK3olvb5D/r+zaUBIFGEMgHrlMAtoTGrau3wrkLvZYJnyI2Xbw0hf01gsZ4F4FlwvPKK2gzHftPiYmqIGwvJKiwx3sK2RsCEIAABEYj4Du7qtosldLPgk7bNBpj9modAbNO9MRMFO+aLBM9YsELB3k66b1q+YSY6PcAWCXtXZ20TmNN5EHYuXWiX5mshwAEIAABCByXgLVPKscLCpuXZcLGmsitEsc9N8dDoCkECremMg47vT96p7oWCRMWGrguWSb0L75PPqOTuTm13d0JMVH1UlT19tg67+ZUFS/hLRRVZbMOAhCAAAQgUAcB3+nl2y25OqnTS5PapLzDC4FRB33KaCCBPAhbwuL21duHMRMmKNI7pPfL/TWQx6iXhJgwUlW9Oz5Dhs17NyerpP2n5jXZ56h3gv0gAAEIQAACoxLI2yzfXsmC7t1xEQ+jUmW/thJwVooDDVwX36/0Gf+2N7fD0qkYgK2pcGvyg9aVbk4t9nZCTAx6cap6fZTDWz0+MiHnGZ18hT2oXLZBAAIQgAAExiXgBYSOzQWFLavTa1BGJ2urxj0/+0OggQRGGrgujjPRE3Qdfz2XqWHFxPqRbaaBnAZdEmKiio6voPOYCe1v/qi5m5OWmSAAAQhAAAInRSBvr3ReiYmqmAm1UVjNT+rOcJ4ZINB34DqzTshCEf801sTq2mqPZaLHSiH3p5YKCd1mfv3mD7sqZk1WQftMTjYv68SlS91KORcUuTmZijsnzDIEIAABCByXQC4ifFulmAlZJjRVWcytXaJ9Ou5d4PgmECh/9rmB61wgti5Ro2CfXj/dDb4uxppQIDYxE90HADFR9SL4SrpqXpaJy5cPK+mq4LaqclkHAQhAAAIQqINAVdtk69RG6U8DrJqYoJ2qgzplNJRA34HrYgS2timj02Jn8VA8FG5OpIXtPhCIiX4vRlWvj/X8qJJWcFtulcCE3I8m6yEAAQhAYBoEvBXdu+XqXP2CsKfxPSgTAg0gkOIn4jtlAdgauM5GwT530aWHTSI9bisCstOlF8tt9HZCTPiH3wsIrddyHjOhdVeuHI410U9QWG+QL595CEAAAhCAwHEJqB3S5IWEtVe2Tu64skxo8q5O1umFi1OXDf+HQEHArBOlmJCoKP7dunYrLK3EjE6FePDZnHoERUtpRpsNUyUBLyzyCluWibW1oxW0KmlNVNKVSFkJAQhAAAI1EcjbKJ8aVtsUN+GDsL3l3MdM2LyOYYJA2wjYY+8/i3gJG8DOLBNLnaVuBie5OFncRHx/2hx4bY8Llol+L46vqM06oXWaV6aMra1DQeF7euj16UeU9RCAAAQgUCeBKkFhokJjTfj0sBINVYKizu9DWRCYcQKyRJiIKF2dpM2vbwa5OeWWCe/a1Ob4CcTEsAffWyW8y5MfCdsqaS8ksE4MI8t2CEAAAhAYl4AXEDo2FxS2LMuExUyoPbI/LyjGPTf7Q6DJBAqLRI+bU3yf9G9naye5OfW4N7kg7LYPXIeYqHoxvIAwa4S3TmidLBNmQlblXCUkfAVedR7WQQACEIAABI5LIG+ztGwdXirbt0X5/HHPzfEQaAiBMkJCAkJ/xVgTCsK+ee1mzzgTGlihZxA7x6CNbk+IiWEvQe7iZCbkl16qNiFLVGjCMjGMLNshAAEIQOA4BExEWKeX/5SY8JaJvMPL2ijaquPcAY5tAAETET5GQkKidHcqXJ801sTAgeviu9RGIaFHADEx6EXIK2of4CYTsuXwzi0TJigGlc02CEAAAhCAwHEJ+HbKz0tM5NmcvKDQeRESx6XP8U0hIBenOB1xcfIWirjdxITFSiT3JqWEbfmEmMgfAF8Z27ZcVGhZ6WH9gEB6oKp6fqisc8IsQwACEIBAHQTUFmmyNsp3eGm9CYr0g6fir47vQBkQaAgBSw2bLkeGiUJIdA0TB+HW1Vtp4Lpkf5AVwv2VgdgNYTHuZSAmBhHzFbQPvta8LBM+PSw9PoNIsg0CEIAABOokkAsJ3+ll8zYKtlnPcys6nV113hHKagiBKuuEBIVGwV7uLB9mdIrpYc0q0Vb3JrvliIlBD7+vnPMAbFXSCsKWdSKvqHNhMegcbIMABCAAAQhMQqBKQJjIUHn5WBPeOjHJ+TgGAg0nYNaJMgC7CMLWsgauO3ehmx7Wp4TtO99wVv7yEBPDbrbv/ckFBelhh9FjOwQgAAEInAQBExa+nVKH18WL1S5OZpVAYJzE3eEc9zMBeQvan2bTu3S4LgVjR4cUTSk9rP9XuDpJULTZOoGY6PeA51aJfhW1Tw9bVSlXret3TtZDAAIQgAAExiEwyDqhgeuU0UlTlYsTbk7jkGbfNhGwmIn4fpnb060rt0JnvdN1bZJ4KEbBbruQSNVLm56Nia9VlbUPbLPK+8UXe9PDencnExETn5QDIQABCEAAAhUEvIDQ5n6CIo/t851bCIkKsKxqPYHCIuHdnJKVIk4pZmIlxkzEyQapS0HYXTVRxlK0kSFiYthdzy0UXlSMMnDdsPLZDgEIQAACEDgugSpBcfVqCOfP97o5WUyfzken13Gpc3wDCWjcCRMQPhh7e3O7HAU76Yf0/nQ/S1HRQB6jXBJioopS3uujfXJRoeXr14/6o/rgayrqKrqsgwAEIACBugjkbVPe4cXAdXWRppyGE0iD16X3qTctbIqXiH8atK6zFt2c4pTEg7k56Zd0FBXpL23Uf7ZQrGv4B2Ji2A0eVFEroxMV9TCCbIcABCAAgWkSqLJKaJ3aKKUwV2yfdXRVxU5M87tRNgRmgIC3RnQNE05UxHfJLBSbNze7A9fZNRXCwVyd2mqhQEwMe8itkva9PTavbE6qqEkPO4wi2yEAAQhAYBoE1EZpyju+bDnv9PJxE9P4PpQJgRknYMKijJsoxIRExt0bd8Pq+mrlgHVts0b424yYGOehV+XsRYWOVUVtGZ1USften3HKZl8IQAACEIDAOASGCQltV6fXpUvyyzi0TnhBoXkmCEAgEfBpYdO8Xxfnd7d2w9LqUunWxCjY3QcHMdHlUP3/vKI2IeHzeCvATZYJKupqhqyFAAQgAIHpEfAWiXxeZ1WiEEsPi4iY3n2g5EYRKK0TxRgT5ua0s7WTgrA1+QDsloVIHLnXiIkjSLIVVjlXCQltU0V94UJXTAwSFFaJDzsf2yEAAQhAAAKTEMjbKy3Lem4dXrmYMKuEXz/JeTkGAg0i0BOEHd8hExJyc7p1tTsKdo+QKAKw0zpN+rC/BnEZdCmIiUF0bJtZKLxFwuZlmfBuTrmgGKV89oEABCAAAQhMSiC3SPhluTn5RCH9BMWk5+Y4CDSBgDya7E+z9rsvrvPiYntrOyx34lgTCrxWNqcio1OPuGgCjzGvATHRD5ivjLWPX/ai4sqVrmVC+1RV0lgk+hFmPQQgAAEITEpgUBulbWZNl/VciUI00dk1KW2OayOBTEgIweaNzZQe1rI2WcxEer1a7OuEmBjlBRnU62MVtYkGn37PCwkzf41yPvaBAAQgAAEIjEugqq3SeEjm5qTy8naJDq9xKbN/0wkUFgpzb/JB2Wnguk43ZsK7M5llIlksWvh7DzEx6kthlbRZJazXxwdg54KihQ/UqDjZDwIQgAAEaiLQz3Ku9ZYaVqeyNsp/1vQVKAYCTSJQjjtRWCfKAOzNnbC8sty1TDgXJ7NQtNU6gZgY5elXhaypn6Cw8SaqKmp6fUYhzD4QgAAEIHAcArlVwjq+rH1S2b6NMiu6dXrR+XUc+hzbEAI9o2BrROzuCHbl1ZWjYBcWCEbB7qJBTAx7AaqERF5pyzrh83gzwugwqmyHAAQgAIG6CAxrpyQoqjI66fx0eNV1Fyhnxgn0CAeLl9jvBmAfxBSxFpRdjoLtsjZZDIW5ObXNQoGYGOXhz8VD7upkebyrLBNWPmblUUizDwQgAAEIjEMgFxJ5e6VltVG5mNA5sEaMQ5p9W0SgHGcivj8+dkLzyui0ej4bBTu9T+0NwkZMjPpyVFXQtu7atRAuXuxWzGaV8CZkKuxRKbMfBCAAAQiMS6CqfbK4PpUly4RPYY71fFzC7N8iAj7g2sdOWOpYZXQqg7Ajl2SVKOIn2ja+hD0WiIlBL4ivoLVfVYWtdZub3dR7uYCw5UHnYBsEIAABCECgLgJV7RSjYNdFl3JaRKDSOhEVRTkKdjHWRGmRkNtTSyfExLg33ipq6/XRsmV0UlmyQnhRkQuMcc/H/hCAAAQgAIFhBKpEhK0z63k/y3nuojvsXGyHQMMJ+IHqzM3JLBN3b94Nq+vOzSlaJWyIiTItrIunaDiqdHmIiVHvsq+oTUjYpywT8kf1FbW3SuDmNCpl9oMABCAAgVEJ+HZJx/QTFGqj8lGwfUfXqOdjPwg0mUAxvkQSDel1UhS2Zrp/try7tRuWVoqxJgoefvC6No5dh5gY9cXIK2lvmVAebwtwywUFFfaohNkPAhCAAASOSyBvq1Rev2xOWCSOS5vjm05AeiK+U95SoYHryrEmFC+R3qMIovhrWyYnPQKIiXFfhLyitmVV1haEba5OuDiNS5f9IQABCEBgEgL92iaVpc4uBWBryl1xsZxPQptjmk7ALBK6Tm+ZiIsKwJabUykessHrmo6m6voQE1VU8nWqpDVZZZ27OWmbKmvr5UFE5ARZhgAEIACBkyCQiwq1V5YkJLdEmJDIP0/ie3IOCMwAAbNKeJennTgKttycZIEoR74264SuSYaKlol0xMSoD3NVBe3XydUpt0xUVdy2btTzsh8EIAABCEBgGAFrj7Sf5nNXXMVMrK31dnoR2zeMKttbTMALiCQqimAKExOlaDD3pvj7rq2xE4iJcV6UQYJCbk4EuI1Dk30hAAEIQKAOAmqbNOVtlF+vDi86uOqgTRkNJ5BkQ/HudCWEAif0fnXjJ5TNqbPeSXETJihKESFh4aa2xE8gJoa9FL5y1r5VlbXWqaK+cGFwZd0ys9cwtGyHAAQgAIGaCag98lYJzWvK4/q8sKj5K1AcBGaVQDlInS6gEA8hvkLJMrF/KDJs4DoLvtagdd5SkcRFCqpox4SYmOQ+e0FhlbYfYdQyOqmy9mbkSc7FMRCAAAQgAIFhBKo6vryoUNyETd7dFlExjCzbW0rAhEXp7iQOhYVCA9dZEHYpKIoO4zaJCHs0EBPjvCS5iMgralkmNPUzJdu2cc7JvhCAAAQgAIFxCFRZ0C2jU94+jVMu+0KgJQR8vIQu2QdiS2Rs3NgIi53FngDsHlen9hgl0hOBmBjnxaiqoG2d3Jz0p8HrrLLOszoVqnWcU7IvBCAAAQhAYCQCg9oojYLtO7xUYC4ssFKMhJmd2kPA4ifMzSldebROyDKRx0wkr6bk7dQyJREvGzExyTthFbYsE946obIsCJvB6iYhyzEQgAAEIDAOgSr3pipR4UfBVvm5kBjnnOwLgRYQKOMnCtcmXbIFZm/c3AjnLp7rpoDVL2mJiPhOmctTwlOIizZoC8TEqC+EKmdNXkho3guKq1dDOH/+qGUCYTEqZfaDAAQgAIHjEqgSEzYKtspGSByXMMc3lYAJB/fpXZx8zIQhSKHW6Z3Su9X9S8stmhAT49zsqgrar5NPalV6WJ3DHizMyOMQZ18IQAACEBiVgG+PfEeXjveWibwdypdHPR/7QaDhBJJ1QlP8KEVFXEhuTp3lrjVCI2D7UbALU0Sb3J0QE5O8CLl1wpZlmdDAdZq8NULzmlqmVLsXzf8hAAEIQOBECahN0uTFRT8xYULiRL8gJ4PADBAoXiPTE2aV0Ofm9c3QWet0LRHxUkoXJ11Wi9yb7C4iJkZ5ngdZJHzMhCwT+QijVlGboBjlfOwDAQhAAAIQGJeAtVU6Lm+3LEGItqldsg6v3A2XTq9xqbN/kwl4i0R8p8xSYalhTUT0pIdtl4dTuvuIiUlfAl9Rm6C4fr03m5OvsHUeeoAmpc1xEIAABCAwiEBujbB2yT51rOImfIeXb5NonwbRZVvbCWQxFNtb22F1bbVLxQVgp0Bsi6HQ1pYIC8TEuC9ILiK8ZUI9P3nMhFXQeaU97nnZHwIQgAAEIDAKgdwqYcuynlclCcEaMQpV9mkRgZ6UsLJIuD+5OSmbk6alzlISD+ba1JPNqeDVhtgJxMS4L0deSVuQmz6t18d6fqrMyFTa4xJnfwhAAAIQGIWAb5+0v7dWaFltVEd+3vrx0+dvlPOwDwQaTKAMurZrLFydLGbCBrSToFhaWUpCwqeF9a5PbRASwoSYmPSFyC0UtqzKWpOvqG150nNxHAQgAAEIQGAcAtYm5XF9sp5rysXEOGWzLwSaTqDMYdCNk8gtE1rrMzoNskw0HZWuDzExzl32vTya95W0VdzK6HTp0mFFLeuED3DDMjEOcfaFAAQgAIFxCPiOLpu34zUKtjIO5kLClrVf3hE2zrnZFwJNJODiJWSdSJaL+N/mzZjRab2b0SlZIyw9rHN7aiKOqmtarFrJugEE8orauzlpm401oSLyCtuK9RW3CZQBp2QTBCAAAQhAoC8B39GlnfJ2KhcVeduEgOiLlg0tJuBFRHqturETyd2pmFLMhISE/nzsRDJVtGfCMjHJve5XUWv9sJ4fVdpMEIAABCAAgWkS8O2UWdE11oRZJnKr+TS/C2VDYAYJWOzEkWDsQk0kN6eV5cOYicIyYS5P6ZL1k8/+ZpDBqF8ZMTEqKV8x65h+gsIPDGSVdZ7He9Rzsh8EIAABCEBgHALeCpG3U3LDtYyDKtNbybFOjEOZfVtCwFyayst11opb126F1fXVZJXwoiEtp9erPZ3HiInjvBBWUfvYCQVgr68fdXHyFXWLHrDj4OVYCEAAAhCYkEDeAaZirLNL83mbRLs0IWgOaxwB795UuDSVAdhFvIRds7I52bgSPVmcWvY+ISYmeQuqzMfejFw1CnZunWjZgzYJZo6BAAQgAIExCeTWCL9so2D3ExLWLtE+jQmd3ZtMwFLBJu+m+JeERfyXRsHWwHUuNWxpjShcm9pinUBMTPoG9KuwZUaWZUKTVdgIiUkpcxwEIAABCExCoF8bVTUKNhkHJyHMMW0gYMHWubUiLm9e3wyLnZjHyMdFtCA+ouq2IyaqqAxbp0pak1XW3s1J64e5Og0rn+0QgAAEIACBcQn4tknH5m2UL89bJ7Qea8S4tNm/LQRkjdA/WSQKq4Q+LQA7d28qYyjawideJ2Ji3JudCwmrrO1T5cmUrLEmfAA2PT/jkmZ/CEAAAhCYlIBvm1SGtV3WPnnLOe3TpJQ5ri0EXOyEuTvd27oXOufiOBOaClenvi5PDeeEmJjkBucCQsveOuEzOuW+qZOcj2MgAAEIQAACoxCoEhG+E0xjIVW54GKZGIUu+7SIQDcywlkk0rtVxEzE+c0bMdVynBSEnSYnKEpMRUKnNAZFgyfExHFvbpWw0FgTgzI6pYcuPXWYlo/Ln+MhAAEIQKCagLVP1tmlvWxg1byjy7dHtE/VPFnbGgIpJaym4sOLiIP9Q1GxcXMjLK4s9qSH7XF76uZ6ajw3xMSkt7hKRNi6QaNgIyAmJc5xEIAABCAwKgFrj2x/s04MGlhV+2KhGJUw+zWdgHNt6omZiO+SZXjqGbiuJcKh6rYjJqqo9FvnBYT2qRIUWi83J0sPa3ETiIh+VFkPAQhAAALHJZC3R1aeFxUmKDrRz9vaJOIljkue49tAQMJiv/hzrk4bNzZCZ/0wbsLHTDTcs6nnriMmjvsSWEVtZmR9WjYnX7b19mA+Pi5xjocABCAAgWEEqjq/dIws5+fO9bra0j4No8n2lhLwY0xUWicilzJmQowsNCL/bDg/xMSkN9hX1F5IaL3ExMoKPT+TsuU4CEAAAhCYnIBZIKqsFWqfVjXQlovbw3I+OWuObAWBFENhFgnFTMhKET92NndKMWGxEiYomh507W88YuI4r0FeUduyjTKqsn2FzeB1x6HNsRCAAAQgMCqBXFDoOK0bJQB71HOwHwRaQMCsE+U4E/E9sn+3rt0qR8FOImLYX0N5ISYmvbF5Re1Tw2pbv4HrdD56gSalznEQgAAEIDAqgbyd0rJi+uTmpKnKOuFdnkY9D/tBoGkE4quSMjnpTx+ps7i7nERFkdHJLtusEPpMForCPNEW6wRiwp6EcT6rKmit84JCvT95elidwyrqcc7HvhCAAAQgAIFxCKQfPxV/spyrfbIkIV5QWPm0U+OQZt+2EEivU6+o2N7c7nFzOmKZaAkbxMSkN7qqkrZ1KlOWiTxjBlkzJqXNcRCAAAQgMCqBfh1e1kbdu9ctaZBlYtRzsR8Emk7ALBI+bqKY18B1q2sxBqmYzCpRxk80nU1xfYiJOm50lbAYNNZEHeekDAhAAAIQgEBOwAsJbdOyrObecm7py7U9FxR5eSxDAAJdAt4yUQRgyzKx2FlMsRISEN1XylI56f06XN9kjIiJ49zdKhFh6wYNDOR9Uq0iP8734FgIQAACEIBATsCERN5WydVJlnObaJNycixDoIdA7t5kAdjK5rS8styNkTDh4IOwW8IRMTHujfaVso7NK2lbVs+PpYfNB65DQIxLnf0hAAEIQGBUAoPaKZVh7ZPmvWVi1PLZDwItIWBjS+hyTUCUgdnRUrFxsxi0TkLCgq/jO+XdnRIqZ6xoIjrERB13NRcUKrNfNieERB3EKQMCEIAABIYRyNsmW84ThKicXFTky8POxXYINIyAjS2RLquIm+iGSsQt8V1K1oo4lWNNeIuEzTsmTc7shJg4zsPfr6LWelXWPhhV1jcAACAASURBVABbFbMFYOuciIrjkOdYCEAAAhAYhUBVOyU3Jz+wai4ctMwEAQiUBMwq4d2d0sb4c293azcsd6KrU3qP4jp9xPkkHvx8g3kiJuq4uXllrTLzgYHyTE5WWVNp13EHKAMCEIAABKraIqNS9KKmxbyzK2+fIAkBCBwlYFmdzCqhgOz4b3urSA9rwsGLiqb7NxWUEBNHH5fR11jFrSPyefX8KI+3xpqwiroqdmL0s7EnBCAAAQhAYHQCubgwQSExoYHrvEXCd3DZ+tHPxJ4QaCyB0hphV9j1bkpCQpPSw3bOx4QG3iohy4SJisaSObwwxMSkN9kq5arK2tZJUFilTM/PpKQ5DgIQgAAExiWQt1E63tYpAHs15sbPxYQJinHPxf4QaAGBFCdh/9LvvMOLXlpZSm5NJiDMxSnt0QKvQcREHS+AHirL4225vFWugrAvXToqKLywqOP8lAEBCEAAAhDICfTr7JJl4tSp7t4IipwayxA4QqAMxi5cnZKQKP52tnaOxkcUAqLJQdceEmLiyCMzxgpfUeuwvOLWKKNVQW5jnIJdIQABCEAAAsciYG2TCtH8oEHrvIsTlopjYefgBhEorBCWxclbKZQe9txFuQ3G6636Ewa/vkFY7FIQE3Xd1FxI+Arb9/zk7k5+W13fhXIgAAEIQKDdBKraJLOcywVXU9XAdUYNIdHu54erLy0PpTtThVVC22SZ0GRWiJTJqfgrNjSeJmLiuLe4qsK2dRoFW5aJ9JSlMP+j88c9P8dDAAIQgAAE+hGw9siEhC1XpYfFBbcfRdZDIEVLpCl+pNiJ9C71jjPh08OaNaINrk6IiUleEC8g0oOlB6r48zETefo9rBCT0OYYCEAAAhAYh4DaI03+07dTmrf05doPK8Q4dNm3jQSKV8qERNIVSUschI0bG2F1PSY0SO+SXqcUit3915J3CzFR10uRV9Ravn49hAsXDq0SVdaJljxodWGmHAhAAAIQGINAVdukdUoQotTlvpOLDq8xwLJr6wikPuOkINJnbpkwAVHGRxigQmA0mRdi4rh3t6qiNuuEgtxyNyc/1sRxz83xEIAABCAAgSoCvm3S9ryt0rq8fco7vKrKZR0EWk6gHHeisE4oZkKpYb1bU4+7Uwt4ISbqusl5RS1BoZgJDVxnFXRV8LXOj3WirrtAORCAAAQgkBOw9snHTVhnl7U/tEM5NZYhkAhYfIS3RpRZnbq+TmFxZTHtm+IjGp65qeqxQExUURlnnRcRNtaE1mnSp42EnZuStd33Ao1zTvaFAAQgAAEIDCOQd3LZso6zzi7N5+1T1fKwc7EdAg0kUAZdu2srx5zQuvgz7+7Nu2GpEy0TmnzMRHyP2pLVCTFxnIffiwYrx1fetq5qrAl6gY5DnmMhAAEIQKCKQN4GDRIU5uZk5dDBVUWUdW0nUPYPH8ZJlNmcCjabNzbD6fXTXauE1iUDRZHB0/GrWtcEvIiJuu6iKuw89Z7WXb0awvnzg3t+6voOlAMBCEAAAhCoIpCLCrk5aaqyQtDZVUWQdRBIBHzMRJp3U+7mZLETluGpqQgRE8e9s4N6gazsQUFuxz0/x0MAAhCAAASqCOQCwi9bNicdl1skEBNVNFkHgeTWlGdzkqDY3trupoc1N6f0TnWBNdUa4R8HxESdL4dV1N5CoVzew9Lv+Z6hOr8PZUEAAhCAAARyUSEiPtuglqsEBaKCZwcCiUBPBqe0ogvGLBNyc1rsdIOwLQC7TRmdEBN1vCh5Re2X5eY0yDJBZV3HHaAMCEAAAhCoItCvfbJB67yIoGOriiDrIFASOJLZSVucp1PPgHUpaqI0TzSaImJi0tvrK+j0MMWnyf+ZdcJX2NrPV9YIiUnpcxwEIAABCAwjoDYpn6ydqnJzyoWFjqWdygmy3FICZRYne63Sz77uQjnWRHpnsr8W8EJM1HmTc0GhZY2CrbEm0gOWnOkOz0glXSd9yoIABCAAASNgQqKqXbJtVQOr5u0URCHQZgLSCv4vLXazOpnrkz43bm6U2ZzKdLCFqEjuTg2fEBN13OB+lbXW9/NLtYeLiruOO0AZEIAABCAwiIBvp7Sflvu5Omk7bdMgmmxrK4EKcSEUskzYwHWyTJig6HFz8haLhvFDTNR5Q62yzgOw+40z0QK1WideyoIABCAAgQkIVHV4qRiJiU6n1/1W62mbJoDMIW0gUA5iJxenwkIhy8X25nZYXlnuigg/voRZJ/y6BoJCTNRxU62iVll5pT3IL9X3/FB513EnKAMCEIAABIyAb5u0Tst+kpjQOEiarD3CItHLiCUIGAF7ffyne6WWVuIo2M76cMQ60WCSiInj3lyrnHMR4StxExRVlTUV93HvAMdDAAIQgMAgAv06vPzAdTo+7+Cik2sQVba1kUBmkRACxUwoNexSJ4qJ9BpF5yb/7hQhE00ebwIxUefLMEhQdJ+wo5V1neenLAhAAAIQgEBOoKpt0j4WM6H5qs6uvByWIQCBMiBbIqLM5rS5E2SZMMFQKSgaHIeNmKj7xfCWCiv75s0QLl06rKznI3b9+cq77u9BeRCAAAQgAAFrk0QiFxVqm6oGVdW+WCV4diDQl4CPnVDMRJkatgi+Tgc2OOA6B4OYyIlMsuwraB2fL6v3x4QDImISwhwDAQhAAAKjEsjboFxE2LK3TPiyTUhgrRiVOPs1nMCRwerk7hTfIz/ORGe903VvMkHhhUXD+SAm6r7BeSWu8vP0e1UVNFaKuu8E5UEAAhCAgCeQt0+Wujxvk2wZehCAQMralE82xoTWa7ssE+VkGZzSe6S+ZBdD0VBXJ8RE/oQcZ9kqaitDy5quXQvh4sWjPqm+9+c45+VYCEAAAhCAQBUBa4fs0/bRsjq68kFVERJVFFnXdgLFzzlvjfCpYTW/eXMzrK6tduMmCtFQFXRdtW7W8SImjnMHfS+Pr6i9qLD1Ppc3rk7Hoc6xEIAABCAwDoG8rbJ2SZYJLx6sg0tl+/lxzsW+EGgBgR7LRHq/3EWbkHCWidJC0dDxJhATdT70vsJWuVZhq/fn3LmjlgntYxU5FXedd4KyIAABCEAgJ5CLCnNz0n6+LbL2yAuNvCyWIdBWAiYc9OlERArCdulhTUCk16uhIsIeAcREXS+DCYe8slb5GmdidfVoZY2AqIs+5UAAAhCAQBWBvE2yZe3bL2ZC22ifqmiyrsUEemInkjGiCMAu5ndielgFYVsWpzTWRBE/0XRsiIk673AuKFS21g3K5U2FXecdoCwIQAACEBhEwLdTlhpW+1dZI/y6QWWyDQJtIGCWiEI8JKuE5pNAj+lho5hIr5L+Fe9OmpeiaLioQEzU/QLkgsLEhHdz6jfOBMKi7rtBeRCAAATaS6CqPRINW29tjo/pS72pxV97yXHlEOhLIFkoChFRWiskJqKb0/LKclc46GgTEEUMRd8CG7ABMVHnTUzqtOJPbk6aVlYOe3+07MUDQqLOO0FZEIAABCCQE+jXPqlt0pQLCURFTpDllhMwIVHGSphlInLJYybMOpFeraQsmjshJuq6t3kP0P5+CPqzylvm5KoKm8q6rjtAORCAAAQg0I+Ab6Pyfayjiw6unAzLEEhWiJ4/Y+KEhESGxIRSw/a4NLXEOoGYqONFySvpqt4fy+dtlXXeA1TH96AMCEAAAhCAQD8CeaeXltXRJTcnm2ib+tFjPQS6BMzFqXyf4urCzUk7WJyEDVZXWiW8sGiYoQIxUffLoYfLLBLeOiFXJ6uwvTWCirvuO0B5EIAABCBgBHznltbly8roVBUzoX29pQKiEIBAIuCzOvlB7BSAvbSy1Bsr4QREk12dEBN1vRxV1gi/Ls/opPNSUddFn3IgAAEIQGAYAWuTbD8t522Tt55rP9qpYVTZ3iYCcnnSlLs+FeuTmCgmn8mpyUJCl4uYKG97TTP9RIUsE2trvQFuuVUiX67pK1EMBCAAAQi0nIAXErmo8JYJYUJAtPxh4fJHIdAz7kQ8YPPGZhq0ztybLHbCp4b1QdmjnGNW9kFMHPdO5eJB5eXr8t4f7ZMLByrv494JjocABCAAASOQt0P91vvkINrHt020SzxPEDhKoIiZyNPD+mxOaWiJ+P6UQuJoKY1ag5io+3aqAtfkK3Itmyk5r6htue7vQXkQgAAEIAABI5CLC2ur+rVNdlzeZkEUAhBIBGywOi8qvJtTT1anhjNDTNR5g6uEhFXgCnJbX6/u9aH3p867QFkQgAAEINCPgLVT2q55tU2WttwfQ0dXP4KsbykBuTWlf/G9MSHh520EbLNKJEyFhSIJiwZPiIm6b24uKKx8y5iRHq70dHW3+E9ERd13g/IgAAEIQMC3S6JhnVz6rArARkjwzECgh0AZH2EB2HqNUhR2mknzGzc3QmetU7o2NTU+ourRQExUUTnuurznR+WpwtaUm4yptI9Lm+MhAAEIQGAYgbyjy5Z9aliV4Tu16OAaRpXtbSJQerH3WiYSgmJbipvwGZ3Sb7wifqLsPG4eNMRE3ffU9/j06/3RORERdZOnPAhAAAIQGESgqn3ybk7ljx3nk0FbNYgo21pMIFkm9F98r+xvd2s3iYlkldBrVAiJEpM5pTTM7wkxUeeLkFskfMVtqWF1Pl9hW0VdVYnX+d0oCwIQgAAEIJAT6BeAjYjISbEMgUMCskSYy5N9aqubL7M5xdV+NOwmjjmBmKjr5agyIXtxofOo0u4XhK3tJijq+k6UAwEIQAACEKiySPj2yQKwfecW7RHPDQQGE6gQFDv3dsLq+mpplThimRhc4sxuRUxM+9ZZJa7zEDcxbdqUDwEIQAACgwj4Nknzsppr0Dqbqizn2oa4GESVbS0hUKaDLa63zOak5fg6KaPTYmcxBWGnf0mg6/1pNiDExDTur+8F8uX3s0xQSU/jLlAmBCAAAQjkVnMjYuvV/qht8qNg0ybx3EBgMAHFSphPk+bj+6R/EhO5G5MJiyYLCsTE4MdlvK15j48XFXkPUF5ZJ/XacOk6Hk32hgAEIACBuglUtVNVYsLaJNqmuu8A5TWAQB58nXSFLBM+m5O3SNjPu4b+zENMTOOhznuCbFnnwjd1GsQpEwIQgAAEhhHI2ya/vx+4DgExjCTbW0zAhIQPtj6CQ/3DxT+zSOQWiyPHzPCKxRn+7vfvV/cWif192b+6f8N6f+7fK+KbQQACEIBAEwj4zi2bV9yExERujcBa3oQ7zjXUQUCWB5vy+cLNSeJCA9elAGxNZpnwn66YJs1imZjW3awyJd+8GcLa2uEZ896fvCKf1nejXAhAAAIQaA8B38Glq87bJxu4rooIgqKKCuvaSsAJiW6URPf/6bVSzEQ2aF1bMCEm6rjTvqLuN6/zqMLW1E9E1PFdKAMCEIAABCAwjIAXFNo3d8HVOhMSCIphNNneNgJFjITFSuSXb1mc/PgSaZ/cWpEfOKPLiIlp3zgzI+vTBgeyc3pLxLS/B+VDAAIQgAAEqjq8fNpy3z5BCwIQqCRQZnKKW5NtIr1X3dSwGgFbU0+MhA/GrixxtlciJuq+f148+Epb57FRsKvcmej5qftOUB4EIAABCHgCuTXCtlnaci3nlnMIQgACvQTM1clbJ9weSUwU4sEsE1ouA7IbyBMxMY2bWtXzo3XeL9VX2N6UjKiYxh2hTAhAAALtI5C3RUYgX694Pp/NSfthOW/f88IVj0XAYibSQYXA2LixEZY6S4fCoUgF2+RMTrp8xMRYj86EO/veoH7p9xARE8LlMAhAAAIQGIlALiK07Kcqq7m291s/0knZCQINJOCsEzZgXXpV4j+JicrYCGetaBoRxMQ07mhVhW2WCZ9+Lz15sn0V0nUa34UyIQABCEAAAp6AFxG+bcop0T7lRFiGwCEBr8XjvETF9tZ2aaXocW1q+M88xETdL0ZeSXthEU3Jc4uLUTsUAqLqU98HcVH3XaE8CEAAAu0mYG2T/7R5nxzEt0vtJsbVQ+AIAZ8O1gKvk2WieJd2NnfCkQBsExINFhSIiSOPyjFW5JW0FxKx2KWFhfCBu3fD45cvHwqK/HQIiZwIyxCAAAQgUAeBfm2U4vnymAmdj/aoDuqU0RACPoNTmRLWgrB1jYWlYrETx4MuXJrsM3UiN3hCTEzz5joxsRAfpJ9+73vDL7/lLeH/+JmfCW997LEwPx/x59aJaX4fyoYABCAAgXYTMEHhKVhykKr2CEtFu58Xrv4oAefeVAoMuTnFfxoBW5YJC7huuogwOIiJo49JPWuckJiPlfGH3/nO8OF3vCM8ENeff+ih8Ks/+7Ph/c8+G5aWFKjTbMVaD1BKgQAEIACBWgh4q3mVuKjlJBQCgQYSKIRE6dpUxEqUlop4yeUo2MVPu3wAu0SlYT/7EBN1P+uZa5OExNOPPx4+9qEPhTOdTvhejJt4Of49sLoaPvbhD4cf/8AHDgUFoqLuu0F5EIAABCAgArmA8Mu5m1OVhQKKEIBAXwJmodDn7tZuNz1seo/iIfrwv+8aJiQEJTp2MU2LgJ6Xt1y4EP7vX/mVcOr06fDy66+H34kxE3e/853wi3H5bY8+Gj76kY+E1fiQ/eWnPhU2trfDAYJiWreDciEAAQhAoIqABWB7EaH9aI+qaLEOAiUBG/k6raiIn+hBVQgLWydXqJ44jBnmimViSjdPz8wjDz4YfuljHwunlpfDS1euhN/8i78IL92+HX4QK+jf+fSnw9dfeimciaLi4z/5k+HnP/rR8MCZM1P6NhQLAQhAAAKtJWCuTFXWCUGRmIiW854JIdHax4ULH5GAxU4UIsKEQXJz0lgTcbIRsNNn9m/Es8zEboiJum5TVkmfO3s2/EIUCE9cuhReu3Ej/NFf/3V4Lbo3PR0fqA9evBi29/bC7/zlX4Y/+exnw91oYv7Q+98f/u2v/mpYX1+v6xtRDgQgAAEIQKCagBcY2sNcncw6oXVYKqrZsRYCRsAFY1s2J21aXlkusnY6VA10b7Krw81pCq+Egqr/7Sc/Gd729reH29Gt6Y8/97nwwiuvhAsxg9N/iDESZ86dC38YXZ3+Mq7/87/5m3DvjTfCB555Jn2TrXv3DitwrSA4bgp3iCIhAAEItJhALiSEwlydbt3qgsEy0eIHhEsfRKDHtSnu6MeZkKDQWBMLnYVURLJGJFFelNhQQYGYGPTETLhtd3c3fOOf/ik8EK0Mf//88+Hvv/rVsB5jJ/73n/u5cDYKjSgXwkdidqftjY3wqWid+Mzf/V249vLLMaXYzdg5FPN9M0EAAhCAAASmQSAXEmZVt3Pllgmt9+um8Z0oEwKzSCCzSiRREf9JTFhqWBMR5uI0i5c5yndGTIxCacx9Dvb3w19F96V/+u53w7U7d8JBHAxID9n/90d/FHajReLek0+G7f/238JOtEho2o7i42tRfCQzMxMEIAABCEBgmgRyQRHPtRjj+Q5ilsE9O69ZJrBQTPNOUPYME+hKh8P/+0uxUbDTOgu8brB1AjExpQdZ1onvxaDrECtnuSpdj6bj6zs7IaythRDHm0jCIe7TfdCKJ4xKe0p3g2IhAAEItJxAboFwgmIlJgn55w88EPbf977w57ETbC+PlWg5Oi4fAn0JWAYn96kAbC8gSitF30JmfwNiYlr30Pf82LydK2ZwKlPu5QICc/K07gjlQgACEICAb4/ivITEx2Ms34ceeSQsxPZnJ4qJ5/72b8N2jPdLE20SzwwEjhBImZtMQNjW2C88Pz8f353tsLi8GBbmF8L8XMxz5OIkmiosEBNHHpEaV2SVdgqmVpBb+eA5i0QuKmr8GhQFAQhAAAIQKAkUbdPiwkL4sfe8J7zvrW8NZ6OoCLGj66ejdWL91Knwx3/2Z+FujOtjggAECgIWI+FERHJyiu+T/s6vnQ9PX346PLX+VFg4vxAevPtgeOnFl8K3/ulbR12dGgYVMTHtG6pK2/50rqrBgTApT/suUD4EIAABCDgCC7EH9Sd++IfDT8e/hZgY5OvXroXd114LT0WB8b6YXXA+DqL6hzHObzO2Wek3FB1ePD8QGEjgQ+/9UPiRD/xIePDxB8Opzqnw+kOvhy+c/0JXTORHNiyrE2Iiv8F1LHsB4YWE5hUrobgJJghAAAIQgMBJE4jtkITED8eMgj/3Yz8WVmJc35diYpDf/P73w3aM7fuVuO39Tz8dPvze94b1mDzkt377t8MtExQn/V05HwTuYwJlitjCUrG9s50sFBoeYH5hPtyNroK3bt86HLiu8HdKqWI1maAwi8d9fK3DvhqD1g0jVNd2CQlNuZuTt0p431R6geoiTzkQgAAE2ksg69yST/e74hhIH/+Jnwid6M70+a99LfzOpz8dNmLbtBvFw+8991waG0kuUM9EUfGrv/zL4aGHHmovP64cAhkBP6q1bZK70z9+9R/Dc3/3XNjZjgHY8df1Zz7/mfClr32pPHpufi4sLi2GB2Kyg3NxvLFT8f1ryoRlou47aaKhyjrhBYWsE7EniAkCEIAABCBwEgT0I+jpp54KH/2pnwprZ8+Gb8dg6z+JA6feji5NQX+xXboXsw7+1Re/GHZjr+rPRBeop2Mq83/zr/5V+IP//t/D96IFowGdqCeBmnM0lMBKFNzvfve7w5mzZ8LtO7fDC995oQzEXl5aDk8/8XQZH/H+d70/7O/sh+++/N20TkL+Qz/yoTB/MB9Uzo3rN8JzUbwnC8eMT1gmpn0DTVToPDZv1okqq4S3Tkz7u1E+BCAAAQi0goCExJNPPBH+TbQ0PPHYY+FGdGn6zf/5P8PrcbBU/ZhZ2NsLKzFdufbbjWMlPRcFxZ9+5jPhZtzvqXjcr37yk+Hxt7wlum/EkX2xnLfimeEijxKQle7RC4+GKzH1/2PxPXr0kUfTQHWaLj9xObzlsbeEuf25ZHV45KFHwtvf+vY0gJ3+LcR3R9uf++xz4fOf/3w4+8DZ9L41YUJMTPMu9rNSKG4iqtI0NeRBmiZGyoYABCAAgckJ6AfLww8/HP7FL/5iWF9fD9+JFonf+N3fDa/euNH18Y4/cv6fmMXp//3oR8OFBx9MJ9qPguJvoqD4o7/4i3AnWikef/zx8Ml//a/DMwrOjj2sTBBoIwFzcdL7sbqyGs48cCZZJiTINb7Y8uJyONjvigvFTawsrwS5N9kk96ZPfOIT4WMf+1ij3AepEab9NnhBYeeSZaLT6S7l1olpfx/KhwAEIACB1hDQj5/z58+HX/6lX0qWiR+8+mr44099Krwce1YP4g+i5cXF8M+jkHg2jjNxLqaG/b+i4Hj28uXU0aUfTF/++tfDf/4v/yW88cYb4Yl4/Cd/5VfCe2I62ab0qLbmQeBCayGQXAVjLNGz73g2CfQHzjyQxLWsDqeWYwxE1A37u/thfrH78/rM6TPhwfUH034Pnn8wnDlzJrz+2uvh6tWrYTmmY27Ke0TMRC2PV1aIuTNVWSa0qywTEhNmlTBBoW1YKqZxRygTAhCAQCsJdGJb8/GPfzz++HlHuBPHjfjU//pf4Zvf/nY4iD9k9ANI40z8/Ic/HJbV9kRh8Vj8gfTvY8/pf47WiG89/3zYi+3YSy+/HH7t1389/IJ6U6PlgoDsVj5KXHQksBfdAU9H0f3Io4+ER6IA/9ilj4UPfPADKYbi4sWLPYzk2nTu7LnwH//P/5iCsg/2ojvh3EJ4+p89HfZ29pI1AzHBYzUaARMUtrctezcnLyq0H4JiNLbsBQEIQAACAwksRoEg/+179+6F/xFjJL70la+EvbgudouGD77rXeHnPvKRlCr2jdjJtau/27fDbvzB9C9/5mfCb8d4ie/cuZN+9HwnCorf+b3fCz/07LPhs5/9bCOCRgeCYyMEKgjoPZJV4R+++A9xUMe74cd//MeTq5MsEYsL3f75/b1omYguTuUka0W08mm9/v1ZHBByb3cvvP997684w2yuwjIxzfvmLRQ2r/P59LB2fgTENO8EZUMAAhBoJQG5J/1eFAFf+epXY+rKr4a9wgKxFAXFq9evh1//gz8I+1Fs7MTA0t2Y5WkvxlLsRgvGXhQREhZy4dAx8gK/FjMQfj/+kJJ7FBME2khAY0lsxd9wsixsxPfk+W88Hz79158OBwsH4Ydj9rOf//jP92DZidnRfu03fi288t1Xwv72fvh3n/x34Z1xjJfte9spfgnLRBufomHXnLs12f65qIjZM+JT1LVAmIuT/xx2HrZDAAIQgAAERiAgq8LN2Ob8wxe+EA4UOB0H1NKkYNEXYyD2XPThPogD1yWLuCzmUWCkDq/4Q+kgCpHo19FzliaksRwBG7tAoJKALAxKAbuwuJDeIVkpXnr5pXDq9KnwjW99I3zio5/oxkwUlgm5Et5641ayDO5u7SYBIlepzWgFVHrYpiQzwDJR+bhMeaUqakbBnjJkiocABCAAASNQioCicystx79kZdCf2iWlfT08oLfDC5QQgEBy71OsxIc++KFwdu1s+P6r309pX7V+ZzcOVhcnc3Oyd06CQoHZWpYAUfD2nTfupMHrsEzwUA0nkFsktOyn3Cph23IrRX7c8DOzBwQgAAEIQKCXgG9L8vbJpyzXUeZ6a5+whAAEklVBlr5vfPMbyU3p/EPnSyqKoXjxuy+GC49eSLERdzbuhO++8t0gVyebNrc2w9djhrTXvv9aeO973tuY2CNSw57Ey5FX4Hmlbd/BRMRJfCfOAQEIQAAC7SGQt0O6cr8uT1mu7QiJ9jwfXOlIBCQMrl27lgTC7Tduh5e/+3L3uNhXLDHxG7/7G+Fz//C5sLuzG77x4jfCf/0f/zVs3dtKFggNbvfnn/rzcOXqleTm9Om/+nQceD6OPN+ACTenad1Eq6T9p82r0u4XMzGt70O5EIAABCAAgaq2qYpKLiTy5apjWAeBhhOQm9Kf/OmfhKXlpXAwdxD25/bD0qluHNJ8iMkKYpam06unk6vThQsX0rxiJbY3tpM71K3bt8L1Yl7OhQAAIABJREFU166nAG7FXzQlBgkxMc0Hv0pIaJ0sE36ikp7mXaBsCEAAAhCoIpALC7Oax2DRNJm13LdRmvcWjapyWQeBBhNQMLXiI1I62OXFZHFYmF8IP/mjPxk+/KEPJ/enxfnF8OSlJ8N/+g//KXz1618Nv/FbvxG27sSO5DhJQKR/DXqPcHOa9gPvHxabl2XCjzOh72CVdVXlPe3vSPkQgAAEINAuArmQ0NWbq5O1QzkROr5yIixDIBGQMHj9xuvhmy9+M2Vv2j/YDzt7O+FvvvA34Qtf+cKhO1PU4grGtknWiiZMWCZO4i6q0vaiwnp/EA4nQZ9zQAACEICAJ5ALibyNsn29qEBI8AxBoCQgy4JbCHv7e+Fr3/haeOGVF8K3Xv5W2Lm0E770uS+Fv33ub8OdW3eSJUNxE/m/nnJmmC+WiWnevLyC9stmmcgrbSrsad4RyoYABCAAARHIBYXWeau5p0S7xDMDgaEEFE+hwOwXXn4hfPkHXw7ffOWbYWt7K1kpSpemZhgijrBATBxBUtMKb4kwEWHrNGhdp9M9kbdOUGHXBJ9iIAABCEDgCIGqDi7tZG1T7ubkLRNHCmMFBFpMQIYJ+0vvkGMR53c3d8NiZ/HQEpHeJf3XTDWBmJjGu5ALifSgFU+a3zaNc1MmBCAAAQhAYBCBQe2QdXQNOp5tEIDAUAKlcCj0Q748tIAZ2gExMc2blQsIv6y4CVXaVZYJLBTTvCuUDQEIQAACRsALC8s0mLdLtEk8LxCoJFDkZepuS+Gx3TUyQCx1YspYM0To0/60d8MMFIiJysdjCitzYTGKbyoV+BRuBEVCAAIQgECylnshMchaIVy0Rzw0EKgm4EVEscfO1uGo1xZ4bQc30dUJMVH9aNS31lfY/Spr3wtUPm0Nk631EaUkCEAAAhCoi4Bvo/K05QiIuihTThsIWNxEEUuxtNIdzC5desN/0iEmTuoB95YJzVulnVfWJixO6ntxHghAAAIQgEA/Ar5NyturfsewHgJtIVAIh/JyC0Ehy0QSE7lrk19uECPGmTiJm+mFhD9fVUank/g+nAMCEIAABNpLwKwRubXcZ3NqLx2uHAL9CZj1Ie7RM4J1sd5iKLybkxVmY0yUhXth4crtf/L7dwuWiWndG2861jmqKu3yCXP2L3p+pnVHKBcCEIBAOwl48ZC3RX5blZtTlRtuOyly1RA4JOBFRcwLm/6ld6m7i1kmLD5CcRPl1EDrBGJi2i9HXnHb+Xw2J63DlDztO0H5EIAABCAwjEA+oOqw/dkOgTYTMDcnb1kYwcrQtCBsxMRJvgS5tcLOXWWNqFp3kt+Vc0EAAhCAQDMJeGuEv0JZJmyqaoO8laJqezNpcVUQ6EtAFolykmHCWSf6HtTADYiJk7ipVSIi903FlHwSd4JzQAACEICAJ9BPWGgfxAPPCgRGJuCFxfbmdjcAW6+RpXJqoHuTwUFMjPyY1LBjXmmbOdm7ONVwGoqAAAQgAAEIjE1A7rdql7A6jI2OA1pIwIwS3tVJ1glvrWgJFsTEtG90lVVC56watA7rxLTvBuVDAAIQaDcBi+PznVu2zpOhk6vdzwlXPxaB3N2pTA07VimzuzOpYeu+d75S7jevc5pv6iABQe9Q3XeH8iAAAQhAoB+BQZ1c/Y5hPQTaTMAsEYWVotIqEd2b0ijYxW+6pgVf6/ZjmZjWS1DV0+N7ggZV2r5HiN6had0hyoUABCDQTgJV7ZNIVGUZbCchrhoCYxPwwde7m7tlzIQvqCdF7NhnuH8PQExM+954ATHtc1E+BCAAAQhAYBQCuZtTP4ExSlnsA4E2E/CxE+IwyErRUE6IiZO8sVZ565wW6KZ5rA8neRc4FwQgAAEIVBHIB63TPuZuO8glt6os1kGg4QSKoerSVZajYRdCYmdzJyx1lpTKqZvNyWdysnk3jt2so0JMTPMOWk+PFxHdp6571jxrBqJimneDsiEAAQhAYBCB3DphQmLQMWyDQMsIeBGhS7c4CVt/ZPucmS6aCwoxcZL31ouKGzdC6HQOz06lfZJ3gnNBAAIQgECVG27VCNi0TzwrEBhIoDLwujgiBVybFcJZI5oUiI2YGPh41LAx7+mpKjKvqPPlqmNYBwEIQAACEJiUQN42aTnPMjhp2RwHgbYQkNHB/xXXLTen5ZXlHgpNEg/57UVM5ESmsVzV+9NvBGw7Py5P07gTlAkBCEAAAiYkvLW8HxU6t/qRYX3bCVR5L5mw8GwsbqLBvBATJ31zqypvX1lTcZ/0HeF8EIAABNpDILdI6MptXZ6ynLapPc8FVzoRgdy9yZY1aN3iShzKzQdZNyjgOoeFmMiJTGs5FxFVlbZV3AiKad0FyoUABCDQXgJeSHjrhIhYG+Vj+YwUbVJ7nxmuvJqAs0pYJqcyo5M7onRt8jETDRQViInqx6S+tVZBV31aNicvIqi062NPSRCAAAQg0J9AbqWwmAl/BG1Sf35sgYARyFyeZJlIqWHj5AVFU+MmEBPTfBXyitqfq8oyMc3vQtkQgAAEIAABEcjbpnxZ+yAieFYgMJxAHjeRL6d3aXgxs74HYmJad9BXzlXzvgeoyjJBRT6tO0O5EIAABCBgBKx9ss98QFVPinaJ5wYCwwkUgiINXLfStU4cSQ3bMIGBmBj+WNSzhyrqvPcnt07UcyZKgQAEIAABCAwnkLdJVUdIQNifbUdUVJFiXdsJVFklPBMfN1G+S82AhpiY9n3MK+sqUaHv4CvnfvPT/q6UDwEIQAAC7SBQZTHXldPJ1Y77z1XWS6CPkDDLhGIlLF6iiXETiIl6H6fxSqsaa8KXQO/PeDzZGwIQgAAExiPQT1Tk1ggrlXZpPL7s3XwCcjxJI9fFyc3vbu124yVkkcisEklQNMjVCTFxUo95P4tEfn4q6pwIyxCAAAQgMG0CXlTk1nFbpn2a9l2g/FkmYNYJfVZZKrx4aJCQ0C1DTJzEg5v3/FQJi36V90l8P84BAQhAAAIQEAFzc8qFQ74MLQhAYDQCuXDIl0cr5b7eCzFxkrcnj5/QuTXWBBMEIAABCEDgpAlYm1TVNum7ICBO+o5wvhkmIFencgC7OL+9td3N5lRlpZjh66z66oiJKiontS4fIEgVN5X3SdHnPBCAAAQgkBOwWD5bT7uUE2IZAolAGSfRXSip9KzXWlkiGmiNKC84ziAmPI1pzvseIN8LlI+CPc3vQNkQgAAEINBuAuZmm1sl+lkn2k2Lq4cABEYggJgYAdLEu1ilXVWAtmlwICYIQAACEIDA/USg0+l+mzyW7376jnwXCLzZBCzQOgu8njuIZoi4ToPWLXeWi6SwMX9TfJ/SXwPNFIiJk3gYh/UA5T1CuDqdxF3hHBCAAAQgIAK+DbJOLmuHcHPiGYHAWASOuDm5o3Mh0ZUWs+8DhZgY6xGpYee80lYPEJV2DWApAgIQgAAEjkUg79jKC6OjKyfCMgQSgUEC4ggihccW/45sm9EViIk368YNq7TfrO/FeSEAAQhAoB0EBrnitoMAVwmBYxPoJyQ0aN1iZ7FbfsODsBETx36MRizAV9qjCAl6gEYEy24QgAAEIHAsAr59snEmVCAuTsfCysEtIuAHqstTwXpLxOx7NFXeVMREJZYprvRCwlfaUzwlRUMAAhCAAAQmJuBFBR1dE2PkwGYTSONMVAx97eMkSvemhokKxMT98mxbZU2lfb/cEb4HBCAAgWYTwM2p2feXqzt5As4qsbO10x20Tt+iYeIhB4uYyIlMazmvtLWcDw40rXNTLgQgAAEIQGAYAdqlYYTYDoHJCTRYUCAmJn8s6jsSv9T6WFISBCAAAQgcnwDuTMdnSAmtJFDl6iQQyd3JB2I3SFwgJt7MRz2PmahydXozvx/nhgAEIACB9hKgo6u9954rr4WABq1rw4SYmPZdrnJv0jl9rw8V9rTvAuVDAAIQgIAn4JOB9MvmZPv7ji4oQgACIxFQzESavDVipCNnb6ciAe7sffH7+htbJe0r635feGWl35buei80RilvcGlshQAEIAABCEAAAhA4QQK5i9Ncw9wIsUyc4MNUnsp6geTm5CesFW/G3eCcEIAABNpFoKpjKreQ58t5WzVoe7tocrUtJlDGR/hxJobxaFCshF0qlolhN72O7SYevCm5X7lU0P3IsB4CEIAABCYlMMxi7tsnWcz7tVcN61GdFCfHQWAUAosr8Wd2C9ycsEyM8jRMc59hbk7TPDdlQwACEIBAewlUCQZvMc87txAS7X1WuPKxCMhisb21PfwYExozbq1ATAy/1fXvYRX45mb9ZVMiBCAAAQhAYBgB7+pUJSqGHc92CEAgWvAiBDdQ3YF/ryr4lCNga9uMCwh/ebg5VdzsWld50zIVdq1oKQwCEIAABGokMOSHUI1noigIzC4BEw9eRERF0Td+otivJ+i6QUJCNxLLxJvxOFuFnY8z8WZ8F84JAQhAAAIQqCJAB1gVFdZBYCCBfoPWDTxoxjciJk7iBo7S25P7pp7E9+IcEIAABCAAAU9A7rfE8vFMQGB0Aubq5CwVOnh3azcsrSyNXs4M74mYOMmb50VFP4GBqDjJO8K5IAABCECgioC1RQRdV9FhHQSqCVSkiE1jTDR8Qkyc9A32IoIeoJOmz/kgAAEIQAACEIBAbQQGuTW1QUgIJGKitsdpjIL6WSXGKIJdIQABCEAAAscmMEpcBBbzY2OmgJYRyFyeqq6+SUIDMVF1h1kHAQhAAAIQaCoB69CiY6upd5jrup8INN/LCcvEiT1vo1Ta3jcVP9UTuzWcCAIQgEDrCVgbRZbB1j8KADgeAW9xsADsJlkhquhgmaiicpLrMB+fJG3OBQEIQAACEIAABKZOYGdz5+g5bMTro1tmeg1i4qRu3zBLg23PrRPDjjup7895IAABCECgOQSqXJ1GsaA3hwBXAoGpELCA7EGB2VM58ZtYKGLipOD3C3Ijn/dJ3QHOAwEIQAAC4xDAcj4OLfZtO4GKtLBtQYKYeDPvtFLDVk1YI6qosA4CEIAABKZBYJhFgjZpGtQpEwKNIYCYOOlbOazSPunvw/kgAAEIQAAC1jb1G/8IQcEzAoGjBCwFbPHZJtcmDwMxcfTRmP6afi5P0z8zZ4AABCAAAQhAAAIQmBaBQljsbO0Ey+Y0rVPdL+UiJu6XO8H3gAAEIAABCJwkgdxSni+f5HfhXBBoOAGlh21qiljERMMfXi4PAhCAAAQgMJCAFxEIioGo2AiBIwQyV6e0fYQRsI+UM8MrEBMzfPP46hCAAAQgAAEIQAACbz4BHy/RttgJxMSb+fwx0uibSZ9zQwACEICAWSKwSPAsQOD4BFqaHhYxcfxHp74SyJZRH0tKggAEIACBegnYuBO0VfVypTQIzDgBxMSM30C+PgQgAAEIQGBqBBAOU0NLwRBoCgHExEndyWEmZCrsk7oTnAcCEIAABPoRkPttpxOCb5Non/rRYj0ERiMwF3fTX0MnxMRJ39iqrBlVlTaV90nfGc4HAQhAAAIQgAAEpkegoYICMTG9R4aSIQABCEAAArNBoKoDq2rdbFwN3xICbzqB3c3d6kHrGigoEBNv9uO2svJmfwPODwEIQAACEOh1bYIHBCAAgREJLI64H7vVRGB+bj6shrPhwv7bwvkbj4elf3go3Nv50fDa/vfC98O3wtbcZtvGOqmJLMVAAAIQgMAkBObDQnggnI/t0lvD+uYPhfnYLm3ufji8dvBy+EH4dtgOG7RLk4DlmPYQKAapWwiL4ezBw+HR3X8WnrrzjnDp24+Ft+3uh1cPvhNeDd+J79J2I5kgJk7ithZxEguxwn547vHwTPhIeGjvLeF0eDAsfO902D14V7hz8Fh4de5CeD48F27MbYT9k/henAMCEIAABFpNYDEshYtzT4e3HnwwPLj3WDi9cTHMvf5Q2N7/ofDG/qXULn1t7q/CGwiKVj8nXPxwAkvhVHyX3h6envtAWD+4GB6682hY+8FD4fLBTnho/3JYn/t2eH7uuXAvSvSmTYiJE7qjC3OL4YOnfi5cXnxffNzOxaD+xbBybj7MPxjC7gNLYeG19XBu7oHw2PJj4fmdz4avbP4pguKE7g2ngQAEINBGAvrx8xOdXwkXl94WJcWZML+wFFbOz4e5h+bC0ulTYenGw+H83Fp4fPnx8MXlPw3f3vocFoo2Pihc81ACp+ZOhx9f+d/Cw4tPhFMHnbC0OB86Dy2Ezvm5mBytE+a3L4Yz84+ER069LXz+3u+Hl8I/Di1zlnYgZuIE7lYSEqu/EJ5ceEdYnlsJ0dMpLJ0J4S2fmA+Xf3k+XPyJWHkXATkrc53wtqX3hXd1fjIKDm7PCdweTgEBCECgdQSW5zvhJ05/MlyYfzJ2bS1FIREzwj4yF578F7Fd+qW58MgH58p2qRM7un7o1I+Hp5bf3TpOXDAEhhFYmTsTPnL6V8P5hcei/0l8l2I3/enH5uJ7NB+e/JchPPzDh7/xOtHN/YdWfjZcWn77sGJnaju/Vqd8uxQj8fDSE+Hy0rvDyvzpJBAWYwrvB989F06txco6PnSrj4Zw5vG4Jc7PxUdxde5sePupD4Vziw8jKKZ8fygeAhCAQNsIzM8thMeWngkXli7HDq5T3XbpdAjr7whhOXZ0zS+rTYriIrZN6vyKNvRwZm49vHPlx8Lq/Nm4fwPT0bTtIeB6ayGgd+nxlXdFi4RE+XJ6N9RZvPZM/DW3ehDmlw7CmSdCWHm4m99A+z8w/1B4tvNTYWXhTBTszXiXEBO1PE79C+nEiveZKAxOza+WwmBxNVbaz86FnTsH4dY/xaideBfW3xnFRKzANelh60Sl+47OR9JxTBCAAAQgAIG6CJyeXwtPr7wvWcptJK3ls3Ph7OUQtl4/CG98J/4Iiu3RuafjT6PiV4Is7GcW1sPleNzSPFkI67oXlDPbBM4snA9Pnnp3WIyi3KZT63PhzFviu/RqCJvfjx3I8XV54C2HokHWiwcWHozug++MxxU//GYbA340075/Dy89GR5aik9VMUmELj8QIybOzIVb34pi4tsHYftmfNCeiOsOn8WoVufDo0tPh/XFC9P+ipQPAQhAAAItInDp1DM9bYvapZWHZJGYC69/We1SCHv3onUitkuxb6ucluIPpieWn42+3+stosWlQqA/AQmCcwvRhFdMepeSRW9hLrz6990O4/296Pakn4Gu+355bjWKkPeEzsLZ/oXP0BYCsKd8s85G9bm6cK48i1ycVi90e3vuXg1hI6Zt6uwehNMfUBzFXNh+PYT9HfUVzSW3qNMLa1P+hhQPAQhAAAJtIvDg4qWwEgNGbZJbhtqlg/ij586VKCT2o2tGbLYeiK5O6lXd3wgp8FpW89OL67FtigcwQQAC4aHlGHAdhYFNy1EbrD46F3/HHYQ73zsIy/PxzYlC/VTU33qX9orMsErHfHbxoZ5jZxknbk5TvnsLczEYx3Xt6EF74KmuH+rZy3PhoffKl64bO3HubfFhO6zfo4hdiMei96Z8iygeAhCAQKsILEYfJrkt2bQSszetRiP4/FII55+NMX3viX7fD4SwEK3lcsFVJ5hNCwdql5y5olXkuFgI9BJYim5K/n2QKD8Vs3TOL+n33VyKj12I789iZy7GJMX5wgNFHcbRASrMx/epCRNiYsp3cXf/XhxHIpoa4iSPudWL0c0p9vjs3u2KCsVOKABbJuUHorg4de7Qr24v7Ia9g2YOcDJl7BQPAQhAAAJ9CGzvbx62S7HJUbD14qp6U2OcxFv1oyd2csWUlrJUrMUfQIuni3Ypjpm0G3Ziu9Rt0/oUz2oItIbAvWi2s/dB8UVnYmzEQhFStPb2ufj+RKtE/F2n4cYkJkyYHxzsx3dwO+zN7TaCFd3eU76NN/d+EDb2bsbMTDEAW5mbZEqOz861z+2Hjev7Yf+Fg7D49f3w4LMH4Vz0qVPE/50Xo1k5GpU392+HO3s3pvwNKR4CEIAABNpE4LWd74VL++8MZ2MqcrVLpy/Nhb2tg3Dt72K7Ez8PnozuGS/vh4diJtgHYpsli/pWdMvdiy3T7d3XwubBnTbh4loh0JfAD3ZeChcOnu6m/U+/8eJ7EjuLr/7dfpjf3w/nnzgIr34nfr7nIHSiF4qEueIq9ub2ws3da+Hefty5AROWiSnfxFd3Xg6v7nw3PTyqsFei+WtnM4TbUUTcizph+1Y34v/6Vw6CgnRWH4mxE9HVSar16va348P2/Sl/Q4qHAAQgAIE2Ebiy/U/h+u6VJCTkbrsUMzndi4lAlMVJCUHULm3GpseyDcp6LleNnYOt8PL218LdXTq52vS8cK39Cbxy7+vhRhQFchFci1a9mO01ZkSLncLfje/S7e67tHE1ZkiLncTaJ71L0XKxHS0a39n6Utjcizs1YEJMTPkm3jvYCF/f/GwMtH4j7NzbSxmcrn8pmoqjoJCFImqGZFpWOr7X4/q716IL1N5uuLN/Mzy/8dn4wMUdmSAAAQhAAAI1EdiM7dG3tj4ftvY2wu69/XDja/tBHVpyt1WnltolBYrefeUgvPbF/SQ0dnZ2wq2918JL976c3DOYIAABJdG5HV7a+mK4t7cZ35mDcCO+R9e/Gt+l+IrITdDepTdejhaKLxyEnWiI2Ikbb+5dC69sPx/fJdyceI5GICALw82974fnNz8Xnvn+R8LW7Qfj4HTRjHwYGpF86fa2QvjB5/UA7oTbm9fDl7c+He7u34rOTsqhwQQBCEAAAhCoh4DapWs7L8YfQV8LB999d7j7g8VopVgMB+peVIOkjygoZKG49tluu/T69g/CP27+ReGWQbtUz52glFknoHfpys7z4ZWtb4SFl94Z7l5ZDQsLccTr+cMfeXqX7l2Prk/PRWF+bzu8vnUlfHnjz5KlL75ps44gfX9iJk7gNu5HefqVrb8K+6eWwtsXfzSOcL0U5pYW3Bii0cUpPlD7u3vRfHwrConPhhfufQEhcQL3hlNAAAIQaCMBWRf+duMPw35si56cf09MURkFxXz8K2HENin+Ctrf2Q23d66HL9z983B154U2ouKaITCQwPb+Vvj83d8LC0uL4bG5Z8JKOB0Wo0/TfBQVBzH1vwSD3qXd+C7d2nk1fHHjj8Pru68MLHPWNiImTuiOxSo5fHX7s+F7y6+Ety/9aLgQno4D/zwU0/NFs1fYDnfmroerB98Oz29/JtzduYqQOKH7wmkgAAEItJWAstD87b0/Di8sfTv8/+2d34/ruHXHNbszc2d2k3YTtA3QH0ECtHnqSwsU/av7P+ShTV+L9mWDAC3ahyzSu4ud/MDad8adWx5aRz4+pmRZFuUx+fHuhS1KIsUPKXK+PDzkz979Y/NnNz9pvhf2n7gJ/dJzs25+e/O++er1V82XH/4lTOP4OmAqYxS11vIm3/kIvDQfwrv0T81f3P2s+eu7f2j+5ObHzffDfiwfP3ltnm++a56a3zS/fv1l88sP/xoW1hE/ibLeJcREvrp1ELNMWfrtx6+bf7v5Rdis5L+bzz/78+bTv/txs/n3nzd/ePmm+X3z62D2+h1C4oAcARCAAAQgkIOA2MW//vhV84fmn5s/+vQ/m88+/0nzyd//cfPy5c9Dn/Q+9kubRnz3yvrjJwdL4qybgLxL33z8nyAeft98cfuj5qd/+jfNX/7tXzX/8eUvgr/R/zZPr++LmtpkSxsxsXDdF0HxIYz4vL/5qnn/adhW9KehkQ4NePMic+eC9xsN9sIlQnIQgAAE6iYgfwStmu+a1U2YevG98GfBj8JyNJ/+V9svyZ4SCIm6awi5H0vgNSygvA4S/JubdfP42f81776/an7zya+al5uwP0uYh1Lqh9WcSi1Z8gUBCEAAAhAYS6B1vN67PBU2Nj6ugwAEqiGAmKimqMkoBCAAAQhAAAIQgAAE5iWAmJiX57jYdLTHj/r443GxcRUEIAABCEBgHgIPYUetlWyEZKY20TfNw5ZY6iRgtgIoFQBiotSSJV8QgAAEIACBcwkgJM4lyP0QKJ4AYuKSRSwjQGtxvOYDAQhAAAIQeOMERFjovzf+qDweBC5CQKwQFVgiPFvEhCeS4/imrVn+W9NKmZMZDcpREsQJAQhAAAKWQF+/BCUIQAACIwkgJkaCyn4Z4iE7YhKAAAQgAAEIQAACOQjcqDAPkdvfOdJ6a3EiJpYuEVPZlk6a9CAAAQhAAAIHBGy/RB91gIcACAwSqHBak+eBmPBEljym0V6SNmlBAAIQgIAl4PsgfwwtCEAAAiMIICZGQJrlkjGNNFOdZkFNJBCAAAQgAAEIQOAiBFpLxd3D3UWSv0SiiIlLUNc0Wc3pkvRJGwIQgAAElIAOeD0+plcZZLCLugKBQwI6xUnX2TFLOd2E3y/rl+6ej832v8NIrj8EMXH9ZUgOIAABCEAAAvkIICTysSVmCBRAADFxiUKUEaChaU803JcoFdKEAAQgAAFLgD0lqA8QmExA7BD6sb8nR/iGb0RMvOHC4dEgAAEIQAAC2QkMDW5lT5wEIFAIgTEb1om+2GmMQjLeNIiJJYtyyCKh1ghrlWBUaMnSIS0IQAACEIAABCAwLwEVEAWKCAWFmJi3yvTHlhr5EUe31Sqo1LaGeSHRHxtnIAABCEAAAtMJaJ9k+6ZUPzU9Be6EQNUE7h/v9xywS4aBmCi5dMkbBCAAAQhAAAIQgMCbI1CSHwViYunqZac69S3Bt/QzkR4EIAABCNRNQK0SLFledz0g97MSKEkwDIFBTAzR4RwEIAABCECgNAJ2itOQL19p+SY/ELgAgRoEBWJiiYp16txUloZdolRIAwIQgAAExhBgMZAxlLgGAuMJFOaMjZgYX/TzXTnk5IaQmI8zMUEAAhCAAAQgAIGMBG72FjEICbVLxN4+3B7sgJ3xMS4aNWJiafy20tm5qYz8LF0SpAcBCEAAApaA9E/48lEnIHA6gTF7TIRYZcpTidMp/2JAAAAYx0lEQVSeEBOnV5nT7vBzU0+7m6shAAEIQAACEIAABN4KARUO8j3yU6KAsFlHTIysCFkukxEgPhCAAAQgAIGlCajjtf1e+hlIDwLXTiAhKG7iPKcRn4L8JhATI8o7yyVqsVivd5vWSUJMd8qCm0ghAAEIQGAEAZl+ywcCEDiJgAiIlIjYrDfD8RSyO/btcC45OzsBHQWaPWIihAAEIAABCPQQOGaBsH2TDHLxgQAExhEwhggVFPJ993B3eH9rjSht2hOWicOinj+krxEfcsDGQjF/ORAjBCAAAQiE1WbCXz9qHRce9rfnY1cYZLVBT4djCOwTMP4UIij2LBM6rUmtEQWxQ0y89cJUUUEj/tZLiueDAAQgUD4B+qLyy5gcjiaQmtp0cHOB4sHnETHhicxx3GeJmCNu4oAABCAAAQjkIjDGZ4JBrlz0ifdaCYxcGvZas3fsuRETxwidez5lTlaTsp3mpOnQSJ9LnPshAAEIQOAcArowCFaIcyhyb+UEkj4ThTJBTLyVglUR8Vaeh+eAAAQgAIGyCfjBrqHcIiyG6HAOAh0BO/XpefVcBRnExFLF7Btt6/BGI71UKZAOBCAAAQicQsAOdNFXnUKOayGwRyCu4GT9J9hnghoyC4Exc1NnSYhIIAABCEAAAiMI2H4J8TACGJdAYEsg7jQRB47Dcfi3N82pcCdsLBOXfgtWq/0nYBTo0iVC+hCAAATqJuD7pbppkHsIjCOQ2Pj6Zf0y7t4rvwoxsXQBDq30xCjQ0qVBehCAAAQgkOqXbH/EIBd1BALDBLyQMFOY7AZ18rub7jQc41WdRUwsWVzWT0LS9ZvWLfkspAUBCEAAAhA41i8xyEUdgcAkArcPt81mtYl+ElFCRFE+Kao3fxNiYqki8g32UumSDgQgAAEIQCBFgH4pRYUwCJxEYPTGdSfFel0XIyaWLi/beD8+9qfOaFA/G85AAAIQgMB8BOiX5mNJTFUSGCUolIxaKgoyUyAmlqj2fvTHHoujmwoHOy91ieciDQhAAAIQgIAQ8P2SUqFfon5AYJiA9ZeIizmZAF3Fqf2OU53Mp/OhGE7hzZ9FTOQsImmcbQPtRYWm7cOxSuQsFeKGAAQgAAHtd3z/00eGfqmPDOG1EmiXgO2y32qI6GAdft893jXP6+fW5VplQ+uAXRgzxMTSBWobcJnmtF5vLRM01EuXBOlBAAIQqI+AH+TyBHSfCSwSngzHEBhHwK/sNO6uq74KMbFU8Y2xUNB4L1UapAMBCEAAAn0E2GeijwzhEOgI7E1nMgLiJP+JQngiJpYsSG9Ofvdu319CnwVRsWSpkBYEIACBOgkcm+qkfRGW8zrrB7k+iUC3A3a4a1BQFLg8LGLipKoy8WJvlVAzs0xzenrCAXsiVm6DAAQgAIGZCGi/pPsfeQHBINdMoImmFgL3D/fN3g7YVkQUJigQE0vV6mPzVFPP4Rvz1DWEQQACEIAABKYS8BZzHw8iwhPhGALDBKzPhIoG/y0xFCQoEBPDVSLvWXV0i5XK1Kq+33mfhtghAAEIQKB2AtIv6ZLlqQGtVFjtzMh/9QTitKZWROhv2QE7WiYSoiGu+FTQBzGRuzD9qI+3UOhqTvIcdgSIBjt3yRA/BCAAgXoJ+Om3fSS0L2KQq48Q4bUTsJaInpWc4oKw7Tu0t9dEIZoCMbHUS+BFhM5L1fQRD0uVBOlAAAIQgIAQ8INdfVTon/rIEA6BLYEeEXGApxDx4POFmPBE5jruG/Wx4WqJsCM/NNpzlQDxQAACEIDAMQJeUOj+R3Kf74/88bG4OQ+Bmgg4QSGb1nUO2F5E+OMr54SYyFmAvpG2aQ1ZJmiwc5YKcUMAAhCAgCfg+yv6IU+IYwiMI+CtFIUJhxQExESKSo4wP81J01DrhBzb3zmegTghAAEIQAACXjjosTpfW0KICuoLBPoJeOHQHt89BKvEKjhf771L/dFc+xnERO4S7BMRQ5aJ3M9E/BCAAAQgUB8BKyK0b/LCIkUFQZGiQhgEdgS8qOhjU6iVAjHRV+Bzh9uGW37beamalm2wsVLMXQLEBwEIQAACfQRSA1++T+q7l3AI1EbAiIebVpDrt0cRl4G1IqJAQYGY8KWe49iPBvk0/KiPP/bXcwwBCEAAAhCYQsD3R1ZEeIu5xE9/NIUy99RAIAiKuKeE+URBEf6XaU6b9WYrIlQ8RE1RoJII+UdM5K7w2nDbBlt+i2VCNgbSDw127pIgfghAAAIQEAK2P7LHdiNVSEEAAuMJjJ3mND7Gq7oSMZGzuOwIkKaTCrPPgKjIWSLEDQEIQAACtj+yfZL8lo1U5cMUJ+oJBI4TEBGhFgojKGRZ2Of1c7RE6IZ1frpTSVYKxMTxqnL+FToKZL/VnKwNtnwjJM5nTQwQgAAEIHAaAe2bpF+y4oI+6TSOXF0FAT+1STN9anhJsBATlypNmeakHxrsS5UC6UIAAhCok0CflVym3/ZZJRj0qrOukOsDAiIc7H/RdUIsFOG9kn9xwzpZGjaOE7cO2MZ3IrpOFOQ+gZg4qCIzB3irhEafcnSTczTWMxcA0UEAAhCAwB4BFRLaP+lJ78tnb2LQi0oEgV4C3iqhQqP3hsJOICaWLlDbeOvcVHkGLyL02Icv/bykBwEIQAAC9RGg76mvzMnxNALqK9FaJySS28fb5mXtNq0L4SX5SVhYiIlpVaf/Lm+JsKZk+1tXzaDB7mfJGQhAAAIQmJeAt0rYPqtvNSesEvOWAbGVQ8A4X3fWCeOIHTPqpjeVKCgQE5es0inLBOLikiVC2hCAAATqI2AFxocPu/zTH9VXF8jxJAJRSKjPRHSg2P+I30SJIkJziZjwJZ7j2M9LtWnQWOcgTpwQgAAEIDCGgLeYqwM21ogx9LimZgKJ6U2KQzat02lOJYsIzS9i4lIvgpiT7aZ18hxWWNCQX6pkSBcCEIBA2QTs1Cab06FpTvRJZdcJcnc2ATvN6f7xPukzcXYibzQCxMRSBeMbb7uaE9aJpUqBdCAAAQhAwBOw1vPU9Fu9Xvsq+ixPkONKCcgysLosrE5zEhS3D7eHRHQ52LhSbEHrwoacIiYOi3v+EGtG1thZgm9+zsQIAQhAAAKHBOxglu+P/DQnuRuxcMiQEAicQECsFDLNSfeYiN/2Y4RFCboCMXFC5Zh0qW2ovXVCIvQjPb7CTUqUmyAAAQhAAAI9BFJ9kV5qLRMSZvuonugIhkA1BHT510Mf66MIti7YZVkkNNOIiaPFP/ECbazldt9wy3HfpnUTk+M2CEAAAhCAwCwEEBCzYCSSwgm0wqLboE6FRsi2THPa22eiMEuEL1nEhCeS61gtFPot05zsB7NyLvLECwEIQAACfQTswFdqYZC++wiHQOUE9vaViK4TW3OF+FF058Q/ws04Kc1fQqoBYiL3y2CtEva3NNpPT9vUbUVDVOQuEeKHAAQgAAErIoSGt5j7KbhyDdNwqTcQGCSgIkKWhn1ePXfXliggLAjExGC1mPmkb7ytcPAigkZ7ZvhEBwEIQAACBwTUWi4nvMXcXkyfdICOAAjsETB+FCImuk9qilNhrhOIiRzvgjbO3iqhaYlVwi8Nq+e8lSLH8xEnBCAAAQjUS8AKCKFgj3XTOgn3g1z1EiPnEEgSiJYI+T+8Q/pbL9TVnNQqUbJ1AjGRrB4zBPrGWqK0IkNXzFDx4K0UMzwCUUAAAhCAAAQ6AjrApQG+n7I+EwxsUXEgMIpA5x9hrhbLxGa12Yao34R8yzqwhVklJJOIiVFVZeJF3jKhx36XUUZ/JgLmNghAAAIQOIuAFxQamfZLTG86Cy83F07ATG3qNq0LYR9vDhVDqUJCShgxsUQ996NBOsXJN9aIiiVKgzQgAAEIQMCKCDvQJVZzLyDom6gvENgnYJaBjSesqAiH9w/3zcvqZXeP+k0UyhExsWTB2gb722+3KWujTWO9ZEmQFgQgAIF6CaiQ8FYJ78vn+yUvMuolSM4rJ+CnNkWPifZ98ufs0rC6cV1pG9ghJnK/ECogbKMtK2YMObn5Bjz3MxI/BCAAAQjURcD2TbZ/sv2PHexSOgiKuuoJuT1OwFop2t/iM6EO2BJB53ztLBSlOGUjJo5Xk+lX+FGfVEy+4aahTlEiDAIQgAAEchOQgS5dHETTSgmK3M9B/BC4FgJxMad2jpP5rTtgd+eY5nQtJfrGntObkXUUSB4z5TOhogIx8cYKkseBAAQgUBAB2zdZ64RazCWrdpCroKyTFQhkIeAtE20i3VSm1hdbrRAlOmJjmchSs1yk3kKRGv2xt9iRIMTFEiVEGhCAAATKJmD7Id8n9YkH+p+y6wS5y0bg3efvtnGrkGjfJes/UdISsYiJbFUpRGxHfezvPsuEfRYa8ZwlQ9wQgAAE6iPgBYW3TNgpTgxq1Vc/yPFpBHQFJ7VMmO/X19duNadOQOhqsYerxp6W7hu8GjFxiUKxK2Zo+joyhIi4RImQJgQgAIE6CKiA8LnV/Y9sX9RnsfD3cgyBSgmoT0Rczan1nThYFrYCNoiJOQvZWyI07r5wBMSc9IkLAhCAAATOIeCdr8+Ji3shUCqBzt86elwnHbA169YqsTfFqTA2iImcBWpHgOxvGQGSpWHtx44AYZ3IWSrEDQEIQAACfpDLLlnuB7r8MfQgUCkBu3JTh8A6YIdAWRZ2s97sCNlpTQVOcZKMIiZyvxC2wZa05PgHP9gtv4cZOXcJED8EIAABCFgC0g/5z7GFQfz1HEOgUgI6pUk2qbMb1UWhEf7XPSaig3X4F1d1in/r7YCVsr+E5ggxkfNl0Abbf0ua3jKhz4FVImeJEDcEIACBugnY/sgPdvl+iMGuuusKuR9HQC0TrUa/e7xrntfP+xvVjYvpaq9CTOQoOm2gbdy20fYjQJiQc5QCcUIAAhCAwDECKi78wiAMbB0jx3kI7PtMtDxuH287P4rkSk6txaIkfIiJ3KWZGvnpWzUj97MQPwQgAAEI1EsgZZVQGjrI5UUE1ol66ws5HyagswVldlN4t+KUpzbsZfWyu7dQPwkLBzExXFXOO+uFhB6LmHh62sZtG24a7fN4czcEIAABCJxGIGWZSFnLbZgXHKelyNUQKIaAXRJWMtU5aMtBKyLUZ0KsFKX5SmhBIiaWqtIqJCQ9ERNWOHgRQUO9VKmQDgQgAIG6CNhBLmupqIsCuYXAeQSMVSJaI/Rf+Nk5YEsKBU5pSoFDTKSonBNmG2dvmZB4dYqTrudthUPf73Oeh3shAAEIQAAC2jf1kVCfCW+B8INdffcTDoGKCViLxP3jffOyDtOc2pWcOiytsCjROoGYyFH5baOdEhRWSNiGW54Fq0SOEiFOCEAAAnUSsFbxvr7pmNCokxy5hsAggb0pTa3fhFgobh9ud6s5iaAIf9ftTXFSa0VBVovbQVKcnE7ANuASix5bJzcVDl5QTE+VOyEAAQhAAAL9BOwAl+2n/Gaqvl9ioKufKWfqJOCmNymEPZFRCRksE7kL2osK22DbxpqGOndJED8EIAABCAgBb4mQY7+ZKqQgAIE0AfWXkFfJ/BdfrfCfWCa6aU7x77xwQqc4Ffq3HmIiXVXmCbUNtooKOy9VUlFBoSn643mehFggAAEIQKBmAtYiIRz8sYTZzVRtX1ToH0A1VwfyPoGAcbKODtf6acN1aVhvmSjRR8LTQ0x4InMdq5DwlgmZ5qQNthcONNhz0SceCEAAAhDoI+D7JzlOTcGV++mX+igSXjGBKBisuDAsZDWn59XzLsT6SMR3qjxwiIkcZWobaonfCgpvmYgVK3ro5HgS4oQABCAAAQgcEvADXbrSoF5Jv3TIjBAIGAIqKPY2rAsCQ5eGjRaJ9k+70q0TiIncr4YfAfLzUlVE0HDnLgnihwAEIAABFRG+bxIxwWaq1A8InESgm9IUDRXbuU93j3fNZrWJ8eiGdd0ysYWOGyMmTqo2J1xsG2xttPV2WRpWxYMXEX3hJyTNpRCAAAQgAIGjBHzf5PsfazG3v49GzAUQKJeA+kao30S0TLTTnuRbLBPxo9ObFEWhQkKyh5iYq773iQcfrtOcYkVrpzfZ77meh3ggAAEIQAACQsBbIbRfsuds32SpISioQxA4TkD9J7bGieZlFTat00/8U69gJRHyiZg4XkWmXeEba23MdWlYrVgqJKalwl0QgAAEIACB4wS8FULusP0Sm6keZ8gVELAEnIDQU49fPG6Xhg0BdrM6u3ldaT4UiImcr4YVFJKOHKvPhBcRVlzkfCbihgAEIACBOglon+S/ZSUnPhCAwMkE7JSn+Lv9PK+ft9aIdqrTnmWiQKdsxMTJVefIDbaRlkv9sYT5pWGZ5nQEKqchAAEIQGA2An6gy64yaPsjP+g12wMQEQTKJSAO2HGak0xvkv/awWJrpdBVnkqhgJjIWZKqUo1abew0J0RETvrEDQEIQAACnoDtj1RUeF8+uQch4clxDIEdgZ0RYhvWHsdlYZ2/RLxAXSYKdZ1ATOR6OaxFwv7+4ovd8nuxgjkn7FzPQ7wQgAAEIFA3ATvAZUWFTHP69tttfySEdNqt0kJY1F1vyP2OQCsa4vpN8W87mYDSrubkOHVTm1oLRckYERNzlq5vqFOCws5N9Q22PEsqbM5nJC4IQAACEICAELCCQvsebzGnT6KuQCASsHtKKJK9sCAsxDKxWW86f4koKFq/idKmNtlqgZjI/ZJYQaGm5NQ+E3bkh8Y7d6kQPwQgAIG6CKQGu5SA9ZnQMNsn1UWK3EKgl8DWBrGzSMS9JsyUJ/GXEOfr7qNWCTO9qbSVnCSviIneKjPxRMoaYcMkWi8cEA8TYXMbBCAAAQhMImD7JbGY+6VhJVIExSS03FQ+gc4iEbKqAkO+O5+JOIO9VRBGSBxsZFcIKsREzoL0wkL8JbTB9g01giJnSRA3BCAAAQj4gS0l0reak55XUYG4oA5BYEeg9ZforBMyzemz7TSn3asT13Pa/lfw33mIiRwvhhcRmobsMSFObvLx1okcz0GcEIAABCBQL4G+vsiHp3a/tgKiXoLkHAJpAnGmk5vu5K+0vhLWOuGvK+AYMTF3IUojLR/7bRvulL+EXE/DPXdJEB8EIAABCFgC2hdJmP0tYkI+9EPUFwgcJ2B8JHS6kwqLOM1p/RKnOO35RrTCokR/CQGGmDhebaZfYUWExOJHf2i4p7PlTghAAAIQOJ2AFRFytxxL3+St5ljPT2fLHXUREFFh/4XD+8f7nQN26zeR3KxOrRaFEENM5ChILyL0WHwmdC1vnTuHoMhRAsQJAQhAAAKegPRF8vF9lDhgr1b+ao4hAIEeArrHRJzpFN+n7fftw220TAx+CpzyhJgYLPGRJ23DrI213KrhGo3fZdQKCrnGCgs9N/IRuAwCEIAABCCQJOD7IrnICgu7mpOcoy9KYiQQAn0EdLqT7jOxt+O19Z3oi+DKwxETOQrQiws9tvNSJV3MyDnoEycEIAABCPQR8P2TXJfymWBAq48g4TUSSExpikvChvfJWiYsGu83Uaq/hOQZMZHrpbCjPvpbV3OSRvr1FWe3XOyJFwIQgAAEDglYISFn7UCXnYKLZeKQHSEQsARUXLRhapm4fwg+E6t207rUak4FTnESBIiJOV+PvoZa0lBBIfNSUw21tVLM+UzEBQEIQAACEPAEtL+ScLVMyO+URSIV5uPjGAKVEIgWCbMsbOc/EfJvV3NSHCVbJDSPiIlclV/FQ1ebghyVBlud3FKCItezEC8EIAABCNRJwFvJrYgQIurLl9pQ1Q5yISjqrD/kOk0g+lzrggbt73B49xg2rVtt4j1xmlN8h7a/Oz+KdIxXHYqYyFF81kJhf9vVnLY1jalOOfgTJwQgAAEI7AjYwa1U/6RXYiGn1kBgkIC1QsiF0WdCrRThO1omVmE1p9QUp8GYr/skYmKu8usb/bGjQLpihrVK2PQZ+ZmrNIgHAhCAAAQsAdsX2d9qmfBWCIQF9QcCwwS8U7ZYJoKY8J84zalQXwnNK2LCl/qcx3Y0aGiKk2/E53wG4oIABCAAAQgoAT/wJRbzvilOUIMABNIE2n0lolFCrBOthUL2mfju6bt4z940J9kPu532VKIPBWIiXU2mhepoT+rbj/5Y6wQWiWm8uQsCEIAABMYR8P2S3mU3rEtZI1Jh41LkKgjUQaB1nZDMis+EbFoXfSXaT0o8pMKuGRZiIlfp+Yb7hz/c3/3aigl5BhrsXCVBvBCAAATqJmCtEULC909DqwzWTY7cQ2BHQP2t1RLRfm9fqeAv0QqJ7gbjeN1ZKeRkgVOeEBNzvii+gdZjSSO1w2isVLG2zfkUxAUBCEAAAhBIE/DCwlrN9Q76pTQ7QqslYFdu6iAkfCbknFodSrM+DBU+YmKIztRzKVEhG9bpvFRrlaDRnkqZ+yAAAQhAYCwB3y/pfeIz8fS0PbL9EX3TWLJcVwkB3V/C73qtKzyJ8/VmHZaFVYuEcDHWiZIx/T/feS9VD+N3hgAAAABJRU5ErkJggg==;" parent="1" vertex="1">
          <mxGeometry x="430" y="306" width="608.28" height="388" as="geometry" />
        </mxCell>
        <mxCell id="Heeshr9j2n27mW7Kai5F-1" value="&lt;font color=&quot;#ffffff&quot;&gt;02&lt;/font&gt;&lt;span style=&quot;font-weight: normal;&quot;&gt;&lt;font color=&quot;#4a4a4a&quot;&gt;-&lt;/font&gt;&lt;/span&gt;&lt;font color=&quot;#62bcf0&quot;&gt;ORBITS&lt;/font&gt;" style="text;html=1;align=left;verticalAlign=middle;whiteSpace=wrap;rounded=0;fontSize=80;fontFamily=Courier New;fontStyle=1;fontColor=#00F008;" parent="1" vertex="1">
          <mxGeometry x="370" y="330" width="490" height="70" as="geometry" />
        </mxCell>
      </root>
    </mxGraphModel>
  </diagram>
</mxfile>
